<svg xmlns="http://www.w3.org/2000/svg" xmlns:xlink="http://www.w3.org/1999/xlink" width="1200" zoomAndPan="magnify" viewBox="0 0 900 899.99999" height="1200" preserveAspectRatio="xMidYMid meet" version="1.0"><defs><clipPath id="1cfbb37634"><path d="M 759 305 L 833.632812 305 L 833.632812 312 L 759 312 Z M 759 305 " clip-rule="nonzero"/></clipPath><clipPath id="415cc7a6b9"><path d="M 66.382812 511 L 183 511 L 183 595 L 66.382812 595 Z M 66.382812 511 " clip-rule="nonzero"/></clipPath></defs><path fill="#003592" d="M 235.109375 351.171875 L 318.421875 487.175781 L 401.882812 487.175781 L 401.933594 487.125 L 430.433594 486.996094 L 472.691406 487.175781 L 476.886719 480.28125 L 406.101562 480.28125 L 412.609375 469.652344 L 483.339844 469.652344 L 487.535156 462.757812 L 416.851562 462.757812 L 423.359375 452.132812 L 494.015625 452.132812 L 498.207031 445.238281 L 427.578125 445.238281 L 485.195312 351.171875 L 489.15625 357.628906 L 481.566406 357.628906 L 477.324219 364.523438 L 493.371094 364.523438 L 499.878906 375.148438 L 470.816406 375.148438 L 466.597656 382.046875 L 504.125 382.046875 L 510.632812 392.671875 L 460.089844 392.671875 L 455.871094 399.566406 L 514.847656 399.566406 L 568.503906 487.175781 L 638.285156 487.175781 L 552.96875 347 L 622.902344 347 L 618.683594 340.105469 L 548.773438 340.105469 L 542.292969 329.480469 L 612.175781 329.480469 L 607.957031 322.585938 L 538.101562 322.585938 L 531.644531 311.957031 L 601.453125 311.957031 L 597.207031 305.0625 L 513.742188 305.0625 L 513.71875 305.113281 L 485.195312 305.242188 L 442.960938 305.0625 L 389.640625 392.671875 L 330.664062 392.671875 L 334.882812 399.566406 L 385.421875 399.566406 L 378.964844 410.191406 L 341.335938 410.191406 L 345.53125 417.089844 L 374.773438 417.089844 L 368.292969 427.714844 L 352.011719 427.714844 L 356.203125 434.609375 L 364.101562 434.609375 L 360.164062 441.121094 L 277.34375 305.0625 L 235.109375 305.242188 L 192.878906 305.0625 L 82.019531 487.175781 L 151.800781 487.175781 Z M 235.109375 351.171875 " fill-opacity="1" fill-rule="nonzero"/><path fill="#003592" d="M 434.394531 434.609375 L 504.664062 434.609375 L 508.882812 427.714844 L 438.613281 427.714844 Z M 434.394531 434.609375 " fill-opacity="1" fill-rule="nonzero"/><path fill="#003592" d="M 595.636719 417.089844 L 665.832031 417.089844 L 661.613281 410.191406 L 591.421875 410.191406 Z M 595.636719 417.089844 " fill-opacity="1" fill-rule="nonzero"/><path fill="#003592" d="M 606.285156 434.609375 L 676.582031 434.609375 L 672.335938 427.714844 L 602.09375 427.714844 Z M 606.285156 434.609375 " fill-opacity="1" fill-rule="nonzero"/><path fill="#003592" d="M 584.964844 399.566406 L 655.105469 399.566406 L 650.886719 392.671875 L 580.773438 392.671875 Z M 584.964844 399.566406 " fill-opacity="1" fill-rule="nonzero"/><path fill="#003592" d="M 313.53125 364.523438 L 383.546875 364.523438 L 379.328125 357.628906 L 309.339844 357.628906 Z M 313.53125 364.523438 " fill-opacity="1" fill-rule="nonzero"/><path fill="#003592" d="M 324.207031 382.046875 L 394.296875 382.046875 L 390.050781 375.148438 L 320.015625 375.148438 Z M 324.207031 382.046875 " fill-opacity="1" fill-rule="nonzero"/><path fill="#003592" d="M 292.210938 329.480469 L 362.09375 329.480469 L 357.851562 322.585938 L 288.019531 322.585938 Z M 292.210938 329.480469 " fill-opacity="1" fill-rule="nonzero"/><path fill="#003592" d="M 302.882812 347 L 372.820312 347 L 368.601562 340.105469 L 298.691406 340.105469 Z M 302.882812 347 " fill-opacity="1" fill-rule="nonzero"/><path fill="#003592" d="M 445.121094 417.089844 L 515.339844 417.089844 L 519.53125 410.191406 L 449.363281 410.191406 Z M 445.121094 417.089844 " fill-opacity="1" fill-rule="nonzero"/><path fill="#003592" d="M 780.289062 392.671875 L 710.171875 392.671875 L 705.953125 399.566406 L 776.09375 399.566406 Z M 780.289062 392.671875 " fill-opacity="1" fill-rule="nonzero"/><path fill="#003592" d="M 790.960938 375.148438 L 720.925781 375.148438 L 716.679688 382.046875 L 786.769531 382.046875 Z M 790.960938 375.148438 " fill-opacity="1" fill-rule="nonzero"/><path fill="#003592" d="M 801.636719 357.628906 L 731.648438 357.628906 L 727.429688 364.523438 L 797.417969 364.523438 Z M 801.636719 357.628906 " fill-opacity="1" fill-rule="nonzero"/><path fill="#003592" d="M 769.640625 410.191406 L 699.449219 410.191406 L 695.230469 417.089844 L 765.445312 417.089844 Z M 769.640625 410.191406 " fill-opacity="1" fill-rule="nonzero"/><path fill="#003592" d="M 758.964844 427.714844 L 688.722656 427.714844 L 684.476562 434.609375 L 754.773438 434.609375 Z M 758.964844 427.714844 " fill-opacity="1" fill-rule="nonzero"/><path fill="#003592" d="M 812.285156 340.105469 L 742.375 340.105469 L 738.15625 347 L 808.089844 347 Z M 812.285156 340.105469 " fill-opacity="1" fill-rule="nonzero"/><g clip-path="url(#1cfbb37634)"><path fill="#003592" d="M 833.632812 305.0625 L 763.851562 305.0625 L 759.632812 311.957031 L 829.414062 311.957031 Z M 833.632812 305.0625 " fill-opacity="1" fill-rule="nonzero"/></g><path fill="#003592" d="M 822.957031 322.585938 L 753.125 322.585938 L 748.882812 329.480469 L 818.765625 329.480469 Z M 822.957031 322.585938 " fill-opacity="1" fill-rule="nonzero"/><path fill="#003592" d="M 748.289062 445.238281 L 612.769531 445.238281 L 616.960938 452.132812 L 744.097656 452.132812 Z M 748.289062 445.238281 " fill-opacity="1" fill-rule="nonzero"/><path fill="#003592" d="M 563.640625 364.523438 L 633.652344 364.523438 L 629.410156 357.628906 L 559.449219 357.628906 Z M 563.640625 364.523438 " fill-opacity="1" fill-rule="nonzero"/><path fill="#003592" d="M 574.289062 382.046875 L 644.378906 382.046875 L 640.160156 375.148438 L 570.097656 375.148438 Z M 574.289062 382.046875 " fill-opacity="1" fill-rule="nonzero"/><path fill="#003592" d="M 733.449219 469.652344 L 737.644531 462.757812 L 623.417969 462.757812 L 627.636719 469.652344 Z M 733.449219 469.652344 " fill-opacity="1" fill-rule="nonzero"/><path fill="#003592" d="M 351.34375 311.957031 L 347.125 305.0625 L 277.34375 305.0625 L 281.5625 311.957031 Z M 351.34375 311.957031 " fill-opacity="1" fill-rule="nonzero"/><path fill="#003592" d="M 680.542969 486.996094 L 722.777344 487.175781 L 726.96875 480.28125 L 634.089844 480.28125 L 638.285156 487.175781 Z M 680.542969 486.996094 " fill-opacity="1" fill-rule="nonzero"/><g clip-path="url(#415cc7a6b9)"><path fill="#003592" d="M 171.992188 588.933594 C 170.835938 587.777344 170.242188 584.714844 170.242188 579.773438 L 170.242188 526.105469 C 170.242188 521.652344 170.707031 518.769531 171.632812 517.5625 C 173.148438 515.554688 175.695312 514.578125 179.476562 514.578125 L 183 514.578125 L 183 511.488281 L 156.816406 511.488281 L 124.949219 575.222656 L 92.515625 511.515625 L 66.382812 511.515625 L 66.382812 514.601562 L 66.792969 514.601562 C 70.367188 514.601562 72.992188 514.988281 74.640625 515.761719 C 76.207031 516.480469 77.289062 517.382812 77.855469 518.460938 C 78.703125 520.003906 79.140625 522.605469 79.140625 526.105469 L 79.140625 579.75 C 79.140625 584.25 78.675781 587.160156 77.777344 588.367188 C 76.285156 590.351562 73.660156 591.351562 69.984375 591.351562 L 66.382812 591.351562 L 66.382812 594.464844 L 98.507812 594.464844 L 98.507812 591.351562 L 94.933594 591.351562 C 91.511719 591.351562 88.992188 590.53125 87.449219 588.933594 C 86.339844 587.800781 85.777344 584.714844 85.777344 579.75 L 85.777344 526.667969 L 119.933594 594.464844 L 122.609375 594.464844 L 156.664062 526.667969 L 156.664062 579.75 C 156.664062 584.277344 156.199219 587.160156 155.300781 588.367188 C 153.808594 590.351562 151.183594 591.351562 147.503906 591.351562 L 143.929688 591.351562 L 143.929688 594.464844 L 182.972656 594.464844 L 182.972656 591.351562 L 179.449219 591.351562 C 176.054688 591.351562 173.5625 590.53125 171.992188 588.933594 Z M 171.992188 588.933594 " fill-opacity="1" fill-rule="nonzero"/></g><path fill="#003592" d="M 250.105469 572.160156 C 248.175781 576.6875 245.757812 579.929688 242.851562 581.757812 C 240.023438 583.609375 236.601562 584.535156 232.71875 584.535156 C 226.878906 584.535156 221.710938 582.320312 217.390625 578 C 213.171875 573.753906 211.011719 567.785156 210.933594 560.246094 L 252.960938 560.246094 L 252.960938 559.835938 C 252.960938 553.171875 250.699219 547.820312 246.246094 543.933594 C 241.796875 539.996094 236.089844 537.992188 229.21875 537.992188 C 220.988281 537.992188 214.328125 540.511719 208.847656 545.65625 C 203.421875 550.777344 200.695312 557.980469 200.695312 567.039062 C 200.695312 575.453125 203.371094 582.246094 208.644531 587.238281 C 213.890625 592.226562 220.296875 594.75 227.703125 594.75 C 234.542969 594.75 240.28125 592.535156 244.753906 588.164062 C 249.335938 583.738281 252.035156 578.953125 252.988281 573.574219 L 253.039062 573.292969 L 250.3125 571.773438 Z M 215.898438 546.429688 C 218.726562 544.035156 221.941406 542.828125 225.464844 542.828125 C 227.78125 542.828125 230.019531 543.417969 232.125 544.601562 C 234.261719 545.8125 235.882812 547.457031 236.910156 549.515625 C 237.578125 550.882812 238.042969 553.09375 238.222656 556.078125 L 210.984375 556.078125 C 211.550781 551.988281 213.195312 548.71875 215.898438 546.429688 Z M 215.898438 546.429688 " fill-opacity="1" fill-rule="nonzero"/><path fill="#003592" d="M 332.976562 585.617188 C 330.945312 586.257812 329.402344 586.566406 328.296875 586.566406 C 327.421875 586.566406 326.625 586.308594 326.007812 585.820312 C 325.339844 585.359375 324.851562 584.507812 324.542969 583.25 C 324.363281 582.425781 324.078125 579.878906 324.078125 572.054688 L 324.078125 510.921875 L 320.527344 510.949219 L 302.035156 517.511719 L 303.167969 520.289062 L 303.527344 520.160156 C 305.300781 519.566406 306.84375 519.257812 308.003906 519.257812 C 308.980469 519.257812 309.777344 519.464844 310.421875 519.902344 C 311.039062 520.339844 311.527344 521.265625 311.808594 522.5 C 312.117188 523.839844 312.296875 527.441406 312.296875 533.488281 L 312.296875 542.363281 C 308.878906 539.738281 304.554688 538.402344 299.464844 538.402344 C 290.71875 538.402344 283.492188 541.59375 277.960938 547.921875 C 272.40625 554.121094 269.578125 561.171875 269.578125 568.8125 C 269.578125 576.429688 272.121094 582.734375 277.136719 587.597656 C 282.152344 592.433594 288.121094 594.902344 294.835938 594.902344 C 298.125 594.902344 301.265625 594.3125 304.144531 593.128906 C 306.820312 591.996094 309.496094 590.296875 312.246094 587.878906 L 312.246094 594.878906 L 315.796875 594.878906 L 334.316406 588.265625 L 333.339844 585.511719 Z M 312.296875 582.785156 C 308.699219 586.105469 304.917969 587.800781 301.03125 587.800781 C 296.378906 587.800781 292.109375 585.769531 288.300781 581.730469 C 284.496094 577.769531 282.566406 571.875 282.566406 564.261719 C 282.566406 556.722656 284.570312 550.957031 288.507812 547.125 C 291.492188 544.164062 294.808594 542.726562 298.667969 542.726562 C 300.671875 542.726562 302.757812 543.265625 304.863281 544.34375 C 306.972656 545.347656 308.699219 546.917969 309.984375 548.976562 C 311.242188 551.0625 312.042969 553.402344 312.296875 555.949219 Z M 312.296875 582.785156 " fill-opacity="1" fill-rule="nonzero"/><path fill="#003592" d="M 373.640625 512.800781 C 372.304688 511.414062 370.609375 510.71875 368.652344 510.71875 C 366.621094 510.71875 364.898438 511.414062 363.535156 512.800781 C 362.144531 514.164062 361.425781 515.914062 361.425781 517.972656 C 361.425781 520.058594 362.144531 521.808594 363.558594 523.171875 C 365 524.609375 366.644531 525.332031 368.625 525.332031 C 370.554688 525.332031 372.253906 524.609375 373.617188 523.171875 C 375.003906 521.78125 375.726562 520.03125 375.726562 517.972656 C 375.75 515.941406 375.03125 514.191406 373.640625 512.800781 Z M 373.640625 512.800781 " fill-opacity="1" fill-rule="nonzero"/><path fill="#003592" d="M 377.601562 590.992188 C 376.574219 590.476562 375.804688 589.707031 375.3125 588.675781 C 374.953125 587.878906 374.515625 586.054688 374.515625 582.039062 L 374.515625 537.964844 L 371.097656 537.992188 L 352.34375 544.78125 L 353.605469 547.691406 L 353.941406 547.585938 C 355.6875 547.023438 357.15625 546.738281 358.3125 546.738281 C 359.394531 546.738281 360.164062 546.945312 360.78125 547.382812 C 361.398438 547.820312 361.8125 548.589844 362.066406 549.800781 C 362.503906 551.472656 362.738281 555.28125 362.738281 561.148438 L 362.738281 582.117188 C 362.738281 585.203125 362.402344 587.570312 361.835938 588.78125 C 361.269531 589.886719 360.5 590.683594 359.597656 591.171875 C 358.957031 591.507812 357.4375 591.894531 353.835938 591.894531 L 353.425781 591.894531 L 353.425781 594.902344 L 383.777344 594.902344 L 383.777344 591.894531 L 383.363281 591.894531 C 379.894531 591.816406 378.324219 591.378906 377.601562 590.992188 Z M 377.601562 590.992188 " fill-opacity="1" fill-rule="nonzero"/><path fill="#003592" d="M 503.582031 529.886719 C 505.820312 523.554688 507.03125 521.035156 507.621094 520.058594 C 509.035156 517.949219 510.324219 516.660156 511.632812 516.019531 C 513.101562 515.273438 514.875 514.910156 517.113281 514.910156 L 517.523438 514.910156 L 517.523438 511.902344 L 490.105469 511.902344 L 490.105469 514.910156 L 490.519531 514.910156 C 493.140625 514.910156 495.277344 515.195312 496.894531 515.734375 C 497.796875 516.019531 498.566406 516.53125 499.082031 517.226562 C 499.675781 518 499.984375 518.769531 499.984375 519.542969 C 499.984375 521.394531 499.03125 524.6875 497.101562 529.601562 L 480.511719 572.855469 L 463.792969 530.167969 C 461.917969 525.332031 460.914062 521.753906 460.914062 519.773438 C 460.914062 518.257812 461.425781 517.097656 462.457031 516.25 C 463.484375 515.375 465.207031 514.910156 467.574219 514.910156 L 470.378906 514.910156 L 470.378906 511.902344 L 434.832031 511.902344 L 434.832031 514.910156 L 435.242188 514.910156 C 436.992188 514.910156 438.332031 515.015625 439.078125 515.21875 C 440.105469 515.554688 441.160156 516.019531 442.292969 516.6875 C 443.089844 517.226562 443.757812 517.871094 444.273438 518.539062 C 445.402344 520.03125 446.40625 521.703125 447.332031 523.632812 L 449.441406 529.011719 L 451.988281 535.648438 L 437.636719 572.855469 L 420.480469 528.726562 C 418.578125 523.8125 417.597656 520.648438 417.597656 519.363281 C 417.597656 518.152344 418.164062 517.125 419.324219 516.25 C 420.429688 515.347656 422.125 514.910156 424.390625 514.910156 L 426.371094 514.910156 L 426.371094 511.902344 L 392.523438 511.902344 L 392.523438 514.910156 L 392.933594 514.910156 C 395.582031 514.910156 397.535156 515.273438 398.925781 515.992188 C 400.390625 516.6875 401.550781 517.742188 402.347656 519.132812 C 402.886719 520.109375 404.148438 523.066406 406.050781 527.957031 L 432.644531 594.902344 L 435.527344 594.902344 L 455.433594 544.21875 L 475.472656 594.902344 L 478.660156 594.902344 Z M 503.582031 529.886719 " fill-opacity="1" fill-rule="nonzero"/><path fill="#003592" d="M 544.761719 537.964844 C 539.617188 537.964844 534.886719 539.097656 530.257812 541.414062 C 525.652344 543.753906 521.949219 547.40625 519.171875 552.21875 C 516.367188 557.054688 514.925781 561.996094 514.925781 566.859375 C 514.925781 573.601562 517.265625 579.773438 521.898438 585.179688 C 527.351562 591.609375 534.78125 594.851562 544.015625 594.851562 C 549.726562 594.851562 554.949219 593.589844 559.527344 591.097656 C 564.207031 588.574219 567.886719 584.84375 570.484375 579.953125 C 573.105469 575.09375 574.445312 570.179688 574.445312 565.367188 C 574.445312 558.546875 572.027344 552.425781 567.269531 547.148438 C 561.609375 541.078125 554.046875 537.964844 544.761719 537.964844 Z M 557.1875 585.488281 C 554.511719 588.445312 551.0625 589.964844 546.871094 589.964844 C 541.289062 589.964844 536.738281 587.210938 533.34375 581.78125 C 529.871094 576.328125 528.121094 569.6875 528.121094 562.046875 C 528.121094 557.210938 528.816406 553.453125 530.28125 550.496094 C 531.621094 547.5625 533.496094 545.476562 535.835938 544.292969 C 538.152344 543.109375 540.46875 542.519531 542.703125 542.519531 C 547.488281 542.519531 551.320312 544.292969 554.40625 547.949219 C 558.984375 553.246094 561.300781 560.632812 561.300781 569.871094 C 561.300781 577.226562 559.914062 582.476562 557.1875 585.488281 Z M 557.1875 585.488281 " fill-opacity="1" fill-rule="nonzero"/><path fill="#003592" d="M 632.625 540.023438 C 630.925781 538.632812 628.84375 537.964844 626.296875 537.964844 C 621.074219 537.964844 615.957031 541.746094 611.070312 549.207031 L 611.070312 537.964844 L 607.726562 537.992188 L 588.976562 544.757812 L 589.875 547.691406 L 590.261719 547.5625 C 592.0625 546.96875 593.503906 546.6875 594.789062 546.6875 C 595.792969 546.6875 596.667969 546.917969 597.4375 547.40625 C 598.132812 547.921875 598.597656 548.71875 598.851562 549.824219 C 599.007812 550.546875 599.265625 552.9375 599.265625 561.019531 L 599.265625 582.066406 C 599.265625 585.949219 599.085938 587.289062 598.929688 587.726562 C 598.570312 589.011719 597.851562 589.9375 596.820312 590.53125 C 595.40625 591.351562 593.09375 591.765625 590.132812 591.765625 L 589.722656 591.765625 L 589.722656 594.773438 L 621.667969 594.773438 L 621.667969 591.765625 L 621.257812 591.765625 C 618.582031 591.765625 616.523438 591.40625 615.132812 590.734375 C 613.71875 590.066406 612.792969 589.269531 612.253906 588.265625 C 611.457031 586.722656 611.046875 584.484375 611.046875 581.628906 L 611.046875 555.71875 C 613.152344 552.039062 615.132812 549.492188 617.0625 547.871094 C 617.914062 547.175781 618.710938 546.816406 619.402344 546.816406 C 619.996094 546.816406 621.179688 547.148438 623.441406 548.796875 C 625.421875 550.210938 627.25 550.933594 628.921875 550.933594 C 630.617188 550.933594 632.03125 550.367188 633.269531 549.207031 C 634.527344 548.078125 635.144531 546.660156 635.144531 544.988281 C 635.144531 543.109375 634.296875 541.4375 632.625 540.023438 Z M 632.625 540.023438 " fill-opacity="1" fill-rule="nonzero"/><path fill="#003592" d="M 705.441406 591.148438 C 703.949219 590.632812 702.226562 589.527344 700.011719 587.648438 C 698.546875 586.414062 695.769531 583.53125 691.269531 578.566406 L 675.964844 561.585938 C 675.964844 561.585938 694.175781 544.421875 698.90625 542.054688 C 701.171875 540.921875 704.179688 540.691406 707.859375 540.613281 L 708.242188 540.613281 L 708.242188 537.9375 L 680.980469 537.9375 L 680.980469 540.589844 L 681.367188 540.613281 C 682.933594 540.667969 684.117188 541 684.761719 541.515625 C 685.378906 542.003906 685.660156 542.519531 685.660156 543.1875 C 685.660156 543.597656 685.53125 543.960938 685.25 544.34375 C 684.734375 544.988281 664.929688 563.566406 664.929688 563.566406 L 664.929688 510.949219 L 661.328125 510.976562 L 642.863281 517.636719 L 644.378906 520.441406 L 644.714844 520.316406 C 646.410156 519.695312 647.773438 519.363281 648.699219 519.363281 C 649.832031 519.363281 650.628906 519.566406 651.273438 520.03125 C 651.914062 520.519531 652.378906 521.394531 652.636719 522.679688 C 652.945312 523.941406 653.097656 527.621094 653.097656 533.898438 L 653.097656 582.476562 C 653.097656 585.589844 652.789062 587.75 652.148438 588.933594 C 651.65625 589.785156 651.039062 590.375 650.21875 590.734375 C 648.699219 591.378906 646.4375 591.714844 643.425781 591.714844 L 643.015625 591.714844 L 643.015625 594.671875 L 674.78125 594.671875 L 674.78125 591.738281 L 674.371094 591.738281 C 670.304688 591.660156 668.582031 591.300781 667.835938 591.019531 C 666.886719 590.554688 666.140625 589.808594 665.703125 588.855469 C 665.160156 587.828125 664.90625 585.589844 664.90625 582.167969 L 664.90625 565.519531 L 682.859375 585.691406 C 685.070312 588.136719 685.402344 589.242188 685.402344 589.707031 C 685.402344 590.324219 685.171875 590.8125 684.734375 591.121094 C 684.167969 591.480469 683.140625 591.660156 681.496094 591.714844 L 681.109375 591.714844 L 681.109375 594.644531 L 711.460938 594.644531 L 711.460938 591.6875 L 711.046875 591.6875 C 708.425781 591.714844 706.519531 591.535156 705.441406 591.148438 Z M 705.441406 591.148438 " fill-opacity="1" fill-rule="nonzero"/><path fill="#003592" d="M 750.835938 563.128906 L 741.113281 558.984375 C 737.101562 557.3125 734.273438 555.640625 732.9375 554.097656 C 731.574219 552.628906 730.902344 550.882812 730.902344 548.769531 C 730.902344 547.203125 731.804688 545.734375 733.605469 544.398438 C 735.378906 543.007812 737.824219 542.3125 740.859375 542.3125 C 744.84375 542.3125 748.136719 543.316406 750.65625 545.273438 C 753.203125 547.253906 755.3125 551.085938 756.957031 556.644531 L 757.035156 556.925781 L 759.96875 556.925781 L 759.96875 538.09375 L 757.113281 538.09375 L 756.984375 538.300781 C 756.367188 539.40625 755.980469 539.792969 755.75 539.945312 C 755.46875 540.152344 755.003906 540.253906 754.308594 540.253906 C 753.511719 540.253906 751.917969 539.945312 749.910156 539.40625 C 746.414062 538.503906 743.53125 538.066406 741.113281 538.066406 C 735.585938 538.066406 731.007812 539.585938 727.558594 542.570312 C 724.035156 545.554688 722.261719 549.335938 722.261719 553.789062 C 722.261719 557.261719 723.289062 560.167969 725.347656 562.382812 C 727.355469 564.644531 731.625 567.191406 738.078125 569.996094 C 744.226562 572.621094 748.652344 574.964844 750.863281 576.816406 C 752.894531 578.539062 753.925781 580.675781 753.925781 583.222656 C 753.925781 585.28125 753 587.054688 751.171875 588.523438 C 749.320312 590.039062 746.980469 590.785156 743.96875 590.785156 C 739.675781 590.785156 735.917969 589.476562 732.472656 586.773438 C 729.050781 584.097656 726.6875 580.082031 725.476562 574.785156 L 725.398438 574.476562 L 722.46875 574.476562 L 722.46875 594.851562 L 725.324219 594.851562 L 725.449219 594.644531 C 725.941406 593.773438 726.609375 592.691406 727.484375 592.691406 C 728.382812 592.691406 729.59375 592.898438 730.980469 593.257812 C 735.917969 594.414062 740.136719 594.980469 743.839844 594.980469 C 749.089844 594.980469 753.871094 593.464844 758.117188 590.503906 C 762.386719 587.46875 764.574219 583.453125 764.574219 578.539062 C 764.546875 572.160156 759.941406 566.9375 750.835938 563.128906 Z M 750.835938 563.128906 " fill-opacity="1" fill-rule="nonzero"/></svg>