<svg xmlns="http://www.w3.org/2000/svg" xmlns:xlink="http://www.w3.org/1999/xlink" width="1200" zoomAndPan="magnify" viewBox="0 0 900 899.99999" height="1200" preserveAspectRatio="xMidYMid meet" version="1.0"><defs><clipPath id="84ba59e340"><path d="M 90 376.691406 L 228 376.691406 L 228 514 L 90 514 Z M 90 376.691406 " clip-rule="nonzero"/></clipPath><clipPath id="f40b1c42aa"><path d="M 387 403 L 503 403 L 503 522.941406 L 387 522.941406 Z M 387 403 " clip-rule="nonzero"/></clipPath><clipPath id="53b416d486"><path d="M 511 407 L 622 407 L 622 522.941406 L 511 522.941406 Z M 511 407 " clip-rule="nonzero"/></clipPath></defs><g clip-path="url(#84ba59e340)"><path fill="#0a1e5f" d="M 227.164062 400.421875 C 226.230469 399.492188 225.28125 398.589844 224.304688 397.710938 C 223.332031 396.832031 222.335938 395.976562 221.320312 395.144531 C 220.304688 394.3125 219.269531 393.507812 218.210938 392.726562 C 217.15625 391.945312 216.082031 391.191406 214.988281 390.464844 C 213.894531 389.738281 212.785156 389.039062 211.65625 388.363281 C 210.527344 387.691406 209.386719 387.046875 208.226562 386.429688 C 207.066406 385.8125 205.894531 385.222656 204.703125 384.664062 C 203.515625 384.101562 202.316406 383.574219 201.101562 383.070312 C 199.886719 382.570312 198.660156 382.101562 197.421875 381.660156 C 196.183594 381.21875 194.9375 380.808594 193.679688 380.429688 C 192.421875 380.046875 191.152344 379.699219 189.878906 379.382812 C 188.605469 379.0625 187.320312 378.777344 186.03125 378.523438 C 184.742188 378.269531 183.449219 378.046875 182.148438 377.855469 C 180.847656 377.664062 179.542969 377.503906 178.238281 377.375 C 176.929688 377.246094 175.617188 377.152344 174.304688 377.089844 C 172.992188 377.023438 171.679688 376.992188 170.367188 376.996094 C 169.050781 376.996094 167.738281 377.027344 166.425781 377.09375 C 165.113281 377.160156 163.800781 377.257812 162.496094 377.386719 C 161.1875 377.515625 159.882812 377.675781 158.582031 377.871094 C 157.285156 378.0625 155.988281 378.289062 154.699219 378.546875 C 153.410156 378.800781 152.128906 379.089844 150.855469 379.410156 C 149.582031 379.730469 148.316406 380.082031 147.058594 380.460938 C 145.800781 380.84375 144.554688 381.253906 143.316406 381.699219 C 142.078125 382.140625 140.855469 382.613281 139.640625 383.117188 C 138.425781 383.617188 137.226562 384.152344 136.039062 384.710938 C 134.851562 385.273438 133.675781 385.863281 132.519531 386.484375 C 131.359375 387.101562 130.21875 387.75 129.089844 388.421875 C 127.964844 389.097656 126.855469 389.800781 125.761719 390.53125 C 124.671875 391.257812 123.597656 392.015625 122.542969 392.796875 C 121.488281 393.578125 120.453125 394.386719 119.4375 395.21875 C 118.421875 396.050781 117.429688 396.90625 116.453125 397.789062 C 115.480469 398.671875 114.53125 399.574219 113.601562 400.503906 C 112.675781 401.429688 111.769531 402.378906 110.886719 403.351562 C 110.003906 404.324219 109.148438 405.316406 108.316406 406.332031 C 107.484375 407.347656 106.675781 408.378906 105.894531 409.433594 C 105.113281 410.488281 104.355469 411.558594 103.628906 412.648438 C 102.898438 413.742188 102.195312 414.847656 101.523438 415.972656 C 100.847656 417.097656 100.199219 418.238281 99.582031 419.394531 C 98.964844 420.554688 98.375 421.722656 97.8125 422.910156 C 97.253906 424.09375 96.722656 425.292969 96.21875 426.507812 C 95.71875 427.71875 95.246094 428.941406 94.804688 430.175781 C 94.363281 431.410156 93.953125 432.65625 93.574219 433.910156 C 93.191406 435.164062 92.84375 436.429688 92.523438 437.699219 C 92.207031 438.972656 91.921875 440.25 91.664062 441.539062 C 91.410156 442.824219 91.1875 444.113281 90.996094 445.410156 C 90.804688 446.707031 90.644531 448.007812 90.515625 449.316406 C 90.390625 450.621094 90.292969 451.925781 90.230469 453.234375 C 90.167969 454.546875 90.136719 455.855469 90.140625 457.167969 C 90.140625 458.476562 90.171875 459.789062 90.238281 461.097656 C 90.304688 462.40625 90.402344 463.714844 90.535156 465.015625 C 90.664062 466.320312 90.828125 467.621094 91.019531 468.917969 C 91.214844 470.214844 91.441406 471.507812 91.699219 472.792969 C 91.957031 474.078125 92.246094 475.355469 92.566406 476.628906 C 92.886719 477.898438 93.238281 479.160156 93.621094 480.414062 C 94.003906 481.667969 94.417969 482.914062 94.863281 484.148438 C 95.308594 485.382812 95.78125 486.601562 96.285156 487.8125 C 96.789062 489.023438 97.324219 490.222656 97.886719 491.40625 C 98.449219 492.589844 99.042969 493.761719 99.664062 494.917969 C 100.285156 496.070312 100.933594 497.210938 101.609375 498.335938 C 102.285156 499.457031 102.992188 500.566406 103.722656 501.652344 C 104.453125 502.742188 105.210938 503.8125 105.996094 504.867188 C 106.78125 505.917969 107.589844 506.949219 108.425781 507.960938 C 109.257812 508.976562 110.117188 509.964844 111.003906 510.9375 C 111.886719 511.90625 112.792969 512.855469 113.722656 513.78125 Z M 227.164062 400.421875 " fill-opacity="1" fill-rule="nonzero"/></g><path fill="#0a1e5f" d="M 173.820312 467.617188 L 122.359375 519.355469 L 225.664062 519.355469 Z M 173.820312 467.617188 " fill-opacity="1" fill-rule="nonzero"/><path fill="#0a1e5f" d="M 180.5 460.953125 L 232.75 408.832031 L 285.785156 461.355469 L 233.132812 513.070312 Z M 180.5 460.953125 " fill-opacity="1" fill-rule="nonzero"/><path fill="#0a1e5f" d="M 399.683594 408.453125 L 296.378906 408.453125 L 296.378906 414.332031 L 338.796875 414.332031 L 338.796875 519.355469 L 358.839844 519.355469 L 358.839844 414.332031 L 399.683594 414.332031 Z M 399.683594 408.453125 " fill-opacity="1" fill-rule="nonzero"/><g clip-path="url(#f40b1c42aa)"><path fill="#0a1e5f" d="M 444.871094 403.738281 C 413.042969 403.738281 387.71875 430.773438 387.71875 463.105469 C 387.71875 495.4375 413.117188 522.472656 444.871094 522.472656 C 476.621094 522.472656 502.019531 495.4375 502.019531 463.105469 C 502.019531 430.773438 476.621094 403.738281 444.871094 403.738281 Z M 445.074219 515.808594 C 424.039062 515.808594 409.714844 493.28125 409.714844 462.929688 C 409.714844 432.574219 424.039062 409.898438 445.074219 409.898438 C 466.105469 409.898438 480.429688 432.445312 480.429688 462.828125 C 480.429688 493.207031 466.078125 515.808594 445.074219 515.808594 Z M 445.074219 515.808594 " fill-opacity="1" fill-rule="nonzero"/></g><g clip-path="url(#53b416d486)"><path fill="#0a1e5f" d="M 600.039062 407.058594 L 567.832031 483.679688 L 535.039062 408.628906 L 511.851562 408.628906 L 511.851562 519.9375 L 521.273438 519.9375 L 521.273438 429.683594 L 562.929688 522.671875 L 601.613281 429.027344 L 601.613281 518.164062 L 621.65625 518.164062 L 621.65625 407.058594 Z M 600.039062 407.058594 " fill-opacity="1" fill-rule="nonzero"/></g><path fill="#0a1e5f" d="M 703.546875 414.710938 L 703.546875 407.058594 L 636.183594 407.058594 L 636.183594 519.9375 L 703.546875 519.9375 L 703.546875 512.285156 L 656.226562 512.285156 L 656.226562 464.878906 L 700.421875 464.878906 L 700.421875 457.023438 L 656.226562 457.023438 L 656.226562 414.710938 Z M 703.546875 414.710938 " fill-opacity="1" fill-rule="nonzero"/><path fill="#0a1e5f" d="M 710.226562 407.261719 L 749.523438 462.902344 L 749.523438 520.113281 L 771.316406 520.113281 L 771.316406 462.902344 L 810 407.261719 L 797.628906 407.261719 L 766.007812 452.515625 L 735.171875 407.261719 Z M 710.226562 407.261719 " fill-opacity="1" fill-rule="nonzero"/></svg>