<svg xmlns="http://www.w3.org/2000/svg" xmlns:xlink="http://www.w3.org/1999/xlink" width="1200" zoomAndPan="magnify" viewBox="0 0 900 899.99999" height="1200" preserveAspectRatio="xMidYMid meet" version="1.0"><defs><clipPath id="ac33ec0ead"><path d="M 721 464 L 808.476562 464 L 808.476562 536 L 721 536 Z M 721 464 " clip-rule="nonzero"/></clipPath><clipPath id="eb32025971"><path d="M 91.519531 450 L 271 450 L 271 536 L 91.519531 536 Z M 91.519531 450 " clip-rule="nonzero"/></clipPath><clipPath id="dc7f3bf932"><path d="M 99 403.265625 L 261 403.265625 L 261 476 L 99 476 Z M 99 403.265625 " clip-rule="nonzero"/></clipPath><clipPath id="35873b71eb"><path d="M 99 479 L 262 479 L 262 580.265625 L 99 580.265625 Z M 99 479 " clip-rule="nonzero"/></clipPath></defs><path fill="#17134e" d="M 368.292969 535.292969 L 332.988281 535.292969 C 311.746094 535.292969 307.277344 524.847656 307.277344 516.109375 L 307.277344 464.8125 L 323.839844 464.8125 L 323.839844 516.109375 C 323.839844 517.578125 323.839844 521.46875 332.976562 521.46875 L 368.300781 521.46875 C 377.4375 521.46875 377.4375 517.707031 377.4375 516.292969 L 377.4375 464.8125 L 394.007812 464.8125 L 394.007812 516.292969 C 394.007812 524.960938 389.546875 535.292969 368.292969 535.292969 " fill-opacity="1" fill-rule="nonzero"/><path fill="#17134e" d="M 496.253906 535.292969 L 483.660156 535.292969 L 420.140625 486.738281 L 420.140625 535.292969 L 404.230469 535.292969 L 404.230469 464.8125 L 416.828125 464.8125 L 417.375 465.210938 L 480.34375 513.714844 L 480.34375 464.8125 L 496.253906 464.8125 Z M 496.253906 535.292969 " fill-opacity="1" fill-rule="nonzero"/><path fill="#17134e" d="M 506.496094 464.8125 L 523.066406 464.8125 L 523.066406 535.292969 L 506.496094 535.292969 Z M 506.496094 464.8125 " fill-opacity="1" fill-rule="nonzero"/><path fill="#17134e" d="M 611.703125 535.292969 L 558.988281 535.292969 C 541.925781 535.292969 533.277344 529.476562 533.277344 517.996094 L 533.277344 482.109375 C 533.277344 470.628906 541.917969 464.8125 558.988281 464.8125 L 611.703125 464.8125 L 611.703125 478.632812 L 558.988281 478.632812 C 554.816406 478.632812 549.847656 479.238281 549.847656 482.109375 L 549.847656 517.996094 C 549.847656 520.867188 554.820312 521.472656 558.988281 521.472656 L 611.703125 521.472656 Z M 611.703125 535.292969 " fill-opacity="1" fill-rule="nonzero"/><g clip-path="url(#ac33ec0ead)"><path fill="#17134e" d="M 782.761719 535.292969 L 724 535.292969 L 724 521.472656 L 782.761719 521.472656 C 789.507812 521.472656 791.898438 520.207031 791.898438 519.132812 L 791.898438 507.320312 C 791.898438 505.765625 788.386719 504.796875 782.761719 504.796875 L 747.441406 504.796875 C 730.375 504.796875 721.730469 499.296875 721.730469 488.441406 L 721.730469 481.175781 C 721.730469 470.328125 730.371094 464.8125 747.441406 464.8125 L 804.316406 464.8125 L 804.316406 478.632812 L 747.441406 478.632812 C 741.816406 478.632812 738.304688 479.601562 738.304688 481.171875 L 738.304688 488.433594 C 738.304688 489.992188 741.804688 490.960938 747.441406 490.960938 L 782.761719 490.960938 C 799.828125 490.960938 808.472656 496.472656 808.472656 507.3125 L 808.472656 519.125 C 808.472656 529.851562 799.828125 535.285156 782.761719 535.285156 " fill-opacity="1" fill-rule="nonzero"/></g><path fill="#17134e" d="M 685.796875 464.8125 L 647.632812 464.8125 C 630.566406 464.8125 621.921875 470.316406 621.921875 481.175781 L 621.921875 518.9375 C 621.921875 529.785156 630.570312 535.285156 647.632812 535.285156 L 685.796875 535.285156 C 702.855469 535.285156 711.511719 529.851562 711.511719 519.125 L 711.511719 481.175781 C 711.511719 470.328125 702.859375 464.8125 685.796875 464.8125 M 694.9375 519.128906 C 694.9375 520.203125 692.527344 521.46875 685.796875 521.46875 L 647.632812 521.46875 C 642.007812 521.46875 638.484375 520.5 638.484375 518.941406 L 638.484375 481.179688 C 638.484375 479.613281 641.992188 478.644531 647.632812 478.644531 L 685.796875 478.644531 C 691.421875 478.644531 694.9375 479.617188 694.9375 481.179688 Z M 694.9375 519.128906 " fill-opacity="1" fill-rule="nonzero"/><g clip-path="url(#eb32025971)"><path fill="#17134e" d="M 221.726562 500.054688 C 221.730469 495.589844 220.707031 491.371094 218.664062 487.398438 C 218.5 487.707031 218.320312 488.003906 218.125 488.292969 C 217.925781 488.578125 217.710938 488.855469 217.484375 489.117188 C 217.253906 489.378906 217.007812 489.628906 216.75 489.863281 C 216.492188 490.097656 216.21875 490.316406 215.933594 490.519531 C 215.648438 490.71875 215.355469 490.90625 215.046875 491.074219 C 214.742188 491.242188 214.429688 491.390625 214.105469 491.519531 C 213.78125 491.652344 213.449219 491.765625 213.113281 491.855469 C 212.777344 491.949219 212.4375 492.019531 212.089844 492.074219 C 211.746094 492.125 211.398438 492.15625 211.050781 492.171875 C 210.703125 492.183594 210.351562 492.171875 210.003906 492.144531 C 209.65625 492.117188 209.3125 492.066406 208.96875 491.996094 C 208.628906 491.929688 208.289062 491.839844 207.960938 491.730469 C 207.628906 491.621094 207.304688 491.492188 206.988281 491.347656 C 206.667969 491.199219 206.363281 491.035156 206.066406 490.855469 C 205.765625 490.671875 205.480469 490.472656 205.207031 490.253906 C 204.933594 490.039062 204.671875 489.808594 204.425781 489.5625 C 204.179688 489.316406 203.945312 489.054688 203.730469 488.78125 C 203.511719 488.507812 203.3125 488.222656 203.128906 487.925781 C 202.945312 487.628906 202.78125 487.320312 202.632812 487.003906 C 202.484375 486.6875 202.355469 486.363281 202.246094 486.035156 C 202.136719 485.703125 202.046875 485.367188 201.976562 485.023438 C 201.90625 484.679688 201.859375 484.335938 201.828125 483.988281 C 201.796875 483.640625 201.789062 483.292969 201.800781 482.945312 C 201.808594 482.59375 201.839844 482.246094 201.894531 481.902344 C 201.945312 481.558594 202.015625 481.214844 202.109375 480.878906 C 202.199219 480.542969 202.308594 480.210938 202.441406 479.886719 C 202.570312 479.5625 202.71875 479.25 202.886719 478.941406 C 203.054688 478.636719 203.238281 478.339844 203.4375 478.054688 C 203.640625 477.769531 203.859375 477.496094 204.089844 477.238281 C 204.324219 476.980469 204.574219 476.734375 204.835938 476.503906 C 205.097656 476.273438 205.371094 476.058594 205.660156 475.859375 C 205.945312 475.660156 206.242188 475.480469 206.550781 475.316406 C 205.746094 474.910156 204.921875 474.542969 204.078125 474.214844 C 203.234375 473.886719 202.378906 473.601562 201.507812 473.359375 C 200.636719 473.117188 199.757812 472.917969 198.867188 472.757812 C 197.976562 472.601562 197.082031 472.488281 196.179688 472.417969 C 195.28125 472.347656 194.378906 472.324219 193.472656 472.339844 C 192.570312 472.359375 191.671875 472.421875 190.773438 472.527344 C 189.875 472.636719 188.984375 472.785156 188.101562 472.976562 C 187.21875 473.171875 186.347656 473.40625 185.488281 473.683594 C 184.628906 473.964844 183.785156 474.285156 182.957031 474.644531 C 182.128906 475.003906 181.316406 475.40625 180.527344 475.84375 C 179.738281 476.285156 178.972656 476.761719 178.230469 477.277344 C 177.488281 477.792969 176.769531 478.339844 176.082031 478.925781 C 175.394531 479.511719 174.734375 480.128906 174.105469 480.777344 C 173.476562 481.425781 172.878906 482.105469 172.316406 482.8125 C 171.753906 483.519531 171.226562 484.25 170.738281 485.011719 C 170.246094 485.769531 169.792969 486.550781 169.378906 487.351562 C 168.964844 488.15625 168.589844 488.976562 168.253906 489.816406 C 167.917969 490.65625 167.625 491.507812 167.375 492.378906 C 167.125 493.246094 166.914062 494.125 166.75 495.011719 C 166.585938 495.902344 166.464844 496.796875 166.386719 497.695312 C 166.308594 498.597656 166.273438 499.5 166.28125 500.402344 C 166.292969 501.304688 166.347656 502.207031 166.445312 503.105469 C 166.542969 504.003906 166.683594 504.894531 166.871094 505.78125 C 167.054688 506.664062 167.285156 507.539062 167.554688 508.398438 C 167.824219 509.261719 168.136719 510.109375 168.488281 510.941406 C 168.84375 511.773438 169.234375 512.585938 169.667969 513.378906 C 170.101562 514.171875 170.570312 514.945312 171.078125 515.691406 C 171.585938 516.4375 172.128906 517.160156 172.707031 517.855469 C 173.285156 518.546875 173.898438 519.214844 174.542969 519.847656 C 175.183594 520.484375 175.855469 521.085938 176.558594 521.652344 C 177.261719 522.222656 177.988281 522.757812 178.742188 523.253906 C 179.496094 523.753906 180.273438 524.214844 181.074219 524.636719 C 175.910156 524.097656 170.820312 523.148438 165.808594 521.792969 C 160.796875 520.4375 155.925781 518.691406 151.195312 516.550781 C 146.464844 514.414062 141.933594 511.914062 137.605469 509.050781 C 133.273438 506.183594 129.199219 502.992188 125.382812 499.472656 C 126.46875 498.195312 127.582031 496.945312 128.726562 495.722656 C 129.871094 494.496094 131.042969 493.300781 132.242188 492.128906 C 133.441406 490.960938 134.667969 489.820312 135.921875 488.707031 C 137.175781 487.59375 138.453125 486.511719 139.757812 485.460938 C 141.0625 484.40625 142.390625 483.386719 143.742188 482.394531 C 145.09375 481.40625 146.464844 480.449219 147.863281 479.523438 C 149.257812 478.597656 150.675781 477.703125 152.117188 476.84375 C 153.554688 475.984375 155.011719 475.160156 156.488281 474.367188 C 157.964844 473.578125 159.460938 472.820312 160.972656 472.097656 C 162.484375 471.378906 164.011719 470.691406 165.558594 470.042969 C 167.101562 469.394531 168.660156 468.78125 170.234375 468.203125 C 171.808594 467.625 173.394531 467.085938 174.992188 466.585938 C 176.589844 466.082031 178.199219 465.617188 179.820312 465.191406 C 181.441406 464.761719 183.070312 464.375 184.707031 464.023438 C 186.347656 463.671875 187.992188 463.359375 189.644531 463.085938 C 191.300781 462.8125 192.957031 462.578125 194.621094 462.382812 C 196.285156 462.183594 197.953125 462.027344 199.625 461.910156 C 201.296875 461.792969 202.96875 461.714844 204.644531 461.671875 C 206.320312 461.632812 207.996094 461.632812 209.671875 461.671875 C 211.347656 461.710938 213.019531 461.789062 214.691406 461.90625 C 216.363281 462.023438 218.03125 462.179688 219.695312 462.375 C 221.359375 462.570312 223.015625 462.804688 224.671875 463.078125 C 226.324219 463.351562 227.96875 463.660156 229.609375 464.011719 C 231.246094 464.359375 232.875 464.75 234.496094 465.175781 C 236.117188 465.601562 237.726562 466.066406 239.324219 466.566406 C 240.925781 467.070312 242.511719 467.609375 244.085938 468.183594 C 245.65625 468.757812 247.21875 469.371094 248.761719 470.019531 C 250.308594 470.667969 251.835938 471.355469 253.347656 472.074219 C 254.863281 472.796875 256.355469 473.550781 257.835938 474.339844 C 259.3125 475.132812 260.769531 475.957031 262.207031 476.816406 C 263.648438 477.675781 265.066406 478.566406 266.460938 479.492188 C 267.859375 480.417969 269.234375 481.375 270.585938 482.363281 C 269.035156 480.921875 267.449219 479.523438 265.824219 478.167969 C 264.199219 476.8125 262.539062 475.5 260.84375 474.230469 C 259.152344 472.960938 257.425781 471.738281 255.667969 470.558594 C 253.910156 469.382812 252.121094 468.25 250.300781 467.167969 C 248.484375 466.082031 246.636719 465.046875 244.765625 464.0625 C 242.894531 463.074219 240.996094 462.140625 239.074219 461.253906 C 237.152344 460.367188 235.207031 459.53125 233.242188 458.75 C 231.277344 457.964844 229.289062 457.234375 227.285156 456.554688 C 225.28125 455.875 223.261719 455.25 221.222656 454.675781 C 219.183594 454.105469 217.132812 453.585938 215.066406 453.121094 C 213.003906 452.660156 210.925781 452.25 208.839844 451.894531 C 206.753906 451.539062 204.660156 451.238281 202.558594 450.996094 C 200.457031 450.75 198.347656 450.5625 196.234375 450.429688 C 194.125 450.296875 192.007812 450.21875 189.890625 450.199219 C 187.777344 450.175781 185.660156 450.210938 183.546875 450.300781 C 181.429688 450.390625 179.320312 450.535156 177.214844 450.738281 C 175.105469 450.9375 173.007812 451.195312 170.914062 451.507812 C 168.820312 451.820312 166.734375 452.1875 164.664062 452.609375 C 162.589844 453.03125 160.527344 453.507812 158.476562 454.039062 C 156.429688 454.570312 154.394531 455.152344 152.378906 455.789062 C 150.359375 456.429688 148.359375 457.121094 146.378906 457.863281 C 144.394531 458.605469 142.4375 459.402344 140.496094 460.25 C 138.554688 461.09375 136.640625 461.992188 134.746094 462.941406 C 132.855469 463.886719 130.988281 464.886719 129.148438 465.933594 C 127.308594 466.976562 125.5 468.074219 123.71875 469.214844 C 121.933594 470.355469 120.183594 471.542969 118.464844 472.777344 C 116.746094 474.011719 115.058594 475.289062 113.40625 476.613281 C 111.753906 477.9375 110.140625 479.304688 108.558594 480.710938 C 106.980469 482.121094 105.4375 483.570312 103.933594 485.058594 C 102.429688 486.546875 100.96875 488.074219 99.542969 489.644531 C 98.121094 491.210938 96.742188 492.8125 95.402344 494.453125 C 94.0625 496.09375 92.769531 497.765625 91.519531 499.472656 C 92.628906 500.71875 93.765625 501.941406 94.933594 503.132812 C 96.097656 504.328125 97.289062 505.492188 98.511719 506.628906 C 99.730469 507.769531 100.976562 508.878906 102.25 509.957031 C 103.519531 511.039062 104.816406 512.085938 106.136719 513.105469 C 107.457031 514.125 108.800781 515.113281 110.167969 516.070312 C 111.53125 517.03125 112.921875 517.953125 114.328125 518.847656 C 115.738281 519.738281 117.167969 520.597656 118.617188 521.425781 C 120.066406 522.25 121.535156 523.042969 123.023438 523.800781 C 124.507812 524.558594 126.011719 525.28125 127.53125 525.96875 C 129.050781 526.65625 130.585938 527.308594 132.136719 527.925781 C 133.6875 528.542969 135.25 529.121094 136.828125 529.667969 C 138.40625 530.210938 139.992188 530.71875 141.59375 531.1875 C 143.195312 531.65625 144.804688 532.089844 146.425781 532.484375 C 148.046875 532.878906 149.675781 533.234375 151.316406 533.554688 C 152.953125 533.875 154.597656 534.152344 156.246094 534.398438 C 157.898438 534.640625 159.550781 534.84375 161.210938 535.007812 C 162.871094 535.175781 164.535156 535.300781 166.203125 535.390625 C 167.867188 535.476562 169.535156 535.527344 171.203125 535.539062 C 172.871094 535.546875 174.539062 535.519531 176.207031 535.453125 C 177.871094 535.386719 179.539062 535.28125 181.199219 535.136719 C 182.863281 534.992188 184.519531 534.808594 186.171875 534.585938 C 187.828125 534.367188 189.472656 534.105469 191.117188 533.808594 C 192.757812 533.507812 194.390625 533.171875 196.015625 532.800781 C 197.640625 532.425781 199.257812 532.011719 200.863281 531.5625 C 202.472656 531.113281 204.066406 530.628906 205.652344 530.105469 C 207.234375 529.582031 208.804688 529.019531 210.363281 528.421875 C 211.921875 527.828125 213.464844 527.195312 214.992188 526.527344 C 216.523438 525.855469 218.035156 525.152344 219.53125 524.414062 C 221.027344 523.675781 222.503906 522.902344 223.964844 522.09375 C 225.421875 521.289062 226.863281 520.445312 228.285156 519.570312 C 229.703125 518.699219 231.105469 517.789062 232.484375 516.851562 C 233.859375 515.910156 235.21875 514.9375 236.550781 513.9375 C 227.765625 518.574219 218.492188 521.789062 208.722656 523.578125 C 209.714844 522.957031 210.664062 522.277344 211.570312 521.535156 C 212.476562 520.792969 213.332031 520 214.136719 519.148438 C 214.945312 518.296875 215.691406 517.402344 216.382812 516.457031 C 217.078125 515.511719 217.707031 514.527344 218.273438 513.503906 C 218.839844 512.480469 219.339844 511.421875 219.773438 510.335938 C 220.207031 509.246094 220.570312 508.136719 220.863281 507.003906 C 221.15625 505.867188 221.375 504.722656 221.523438 503.558594 C 221.667969 502.398438 221.742188 501.230469 221.742188 500.058594 " fill-opacity="1" fill-rule="nonzero"/></g><g clip-path="url(#dc7f3bf932)"><path fill="#17134e" d="M 261 462.273438 C 256.464844 459.242188 251.761719 456.511719 246.882812 454.074219 L 246.882812 445.195312 C 246.882812 434.601562 238.078125 426.835938 220.71875 422.113281 C 207.449219 418.730469 193.96875 417.121094 180.277344 417.292969 C 166.539062 417.128906 153.007812 418.730469 139.683594 422.097656 C 122.292969 426.84375 113.476562 434.613281 113.476562 445.207031 L 113.476562 464.242188 C 108.519531 467.75 103.832031 471.589844 99.414062 475.753906 L 99.414062 444.46875 C 99.402344 416.96875 126.363281 403.214844 180.296875 403.214844 C 234.09375 403.214844 260.996094 416.96875 261 444.46875 Z M 261 462.273438 " fill-opacity="1" fill-rule="nonzero"/></g><g clip-path="url(#35873b71eb)"><path fill="#17134e" d="M 99.414062 539.34375 C 99.414062 566.847656 126.382812 580.601562 180.3125 580.59375 C 234.109375 580.59375 261.011719 566.84375 261.011719 539.34375 L 261.011719 487.703125 C 256.519531 484.726562 251.816406 482.144531 246.894531 479.949219 L 246.894531 538.605469 C 246.894531 549.199219 238.089844 556.964844 220.730469 561.6875 C 207.460938 565.0625 193.984375 566.664062 180.292969 566.488281 C 166.558594 566.65625 153.035156 565.058594 139.71875 561.695312 C 122.324219 556.972656 113.507812 549.203125 113.507812 538.609375 L 113.507812 529.832031 C 108.59375 527.011719 103.90625 523.847656 99.445312 520.347656 Z M 99.414062 539.34375 " fill-opacity="1" fill-rule="nonzero"/></g></svg>