<svg width="110" height="50" viewBox="0 0 110 50" fill="none" xmlns="http://www.w3.org/2000/svg">
<g clip-path="url(#clip0_2102_1213)">
<mask id="mask0_2102_1213" style="mask-type:luminance" maskUnits="userSpaceOnUse" x="0" y="0" width="74" height="49">
<path d="M0.684082 0.172607H73.025V48.4863H0.684082V0.172607Z" fill="white"/>
</mask>
<g mask="url(#mask0_2102_1213)">
<path fill-rule="evenodd" clip-rule="evenodd" d="M11.4525 23.181C11.5064 23.2169 11.5724 23.2313 11.6489 23.2313C15.3537 23.2331 18.6012 24.6476 21.6575 26.6913C27.8657 30.8486 33.2168 35.6692 39.7154 40.0405C49.5518 46.6602 62.4098 44.8646 72.6236 40.3244C73.0321 40.1411 73.0669 40.2004 72.7296 40.4952C69.3326 43.4717 65.3775 45.6537 60.8678 47.0413C52.0935 49.7409 43.1663 48.3785 35.2665 43.7413C30.3883 40.8744 26.6627 37.9699 21.3029 34.03C15.3815 29.6749 8.42053 25.3163 0.967553 25.6056C0.713731 25.6164 0.684176 25.5338 0.875412 25.3576C7.55649 19.3112 14.82 14.0485 22.6606 9.57297C31.2176 4.69486 40.5585 1.10009 50.362 0.278687C50.3637 0.278687 50.3637 0.278687 50.3637 0.280484L50.3741 0.343392C50.3811 0.384732 50.3637 0.409896 50.3237 0.42068C42.9959 2.36545 34.9223 5.52525 28.4551 9.63228C26.96 10.5795 25.0093 12.0012 22.605 13.9011C18.8185 16.8847 15.0999 19.9511 11.4473 23.1019C11.4351 23.1109 11.4299 23.1253 11.4299 23.1396C11.4299 23.1576 11.4368 23.1738 11.4525 23.181Z" fill="#F5812C"/>
</g>
<mask id="mask1_2102_1213" style="mask-type:luminance" maskUnits="userSpaceOnUse" x="36" y="1" width="74" height="49">
<path d="M36.9751 1.55298H109.167V49.8451H36.9751V1.55298Z" fill="white"/>
</mask>
<g mask="url(#mask1_2102_1213)">
<path fill-rule="evenodd" clip-rule="evenodd" d="M49.6678 6.22615C45.2955 6.8804 41.1161 8.13138 37.128 9.9755C37.1106 9.98089 37.0984 9.97729 37.088 9.96471C37.0689 9.94494 37.0567 9.92517 37.055 9.90719C37.0498 9.89102 37.0567 9.87484 37.0689 9.86585C46.1039 2.05262 58.27 -0.533819 69.3825 3.77811C72.2493 4.89069 75.1387 6.43465 78.0507 8.40817C83.2732 11.9544 88.1566 15.8637 93.513 19.3453C98.3234 22.4709 103.621 24.7177 109.239 24.5433C109.241 24.5433 109.241 24.5433 109.243 24.5433C109.281 24.5433 109.312 24.5757 109.312 24.6152C109.312 24.6224 109.312 24.626 109.311 24.6332C109.293 24.7051 109.257 24.768 109.201 24.8165C103.179 30.232 96.7153 35.0167 89.8204 39.1722C80.6376 44.7028 70.3039 49.0758 59.6521 49.8487C59.6486 49.8487 59.6486 49.8487 59.6521 49.8469C59.6729 49.8343 59.6886 49.8128 59.6921 49.7822C59.6973 49.7624 59.7077 49.7498 59.7251 49.7445C69.0626 47.2083 78.2958 43.3116 86.1469 37.2976C90.4028 34.0407 94.5665 30.5645 98.612 27.0489C98.7163 26.959 98.6989 26.9141 98.565 26.9159C93.1479 26.9446 88.7199 23.9052 84.5631 20.6789C79.7283 16.9332 75.1735 13.5128 70.895 10.4248C70.0501 9.81373 69.0417 9.2188 67.8717 8.63465C71.3626 11.5338 73.5358 15.1538 74.3894 19.4909C76.9832 32.6891 65.676 44.0431 52.9866 41.2824C41.6933 38.8235 35.7181 25.7368 40.8501 14.9093C40.8675 14.8752 40.904 14.8518 40.9405 14.8518C40.9823 14.8518 41.0205 14.877 41.0379 14.9165C41.6551 16.5485 43.0633 17.5191 44.7496 17.3951C45.5615 17.3358 46.2482 17.0194 46.8097 16.4461C49.0767 14.1346 47.7763 10.2397 44.574 10.0294C44.5149 10.0258 44.4714 9.9755 44.4714 9.91438C44.4714 9.88383 44.4836 9.85327 44.5062 9.8317C45.9961 8.38301 47.7172 7.18236 49.6678 6.22615ZM63.7045 31.8802C65.0745 32.468 66.161 32.1894 66.9608 31.0427C67.7292 29.9427 67.6735 28.8157 66.7973 27.6636C68.1429 24.1425 67.9639 20.8191 66.2601 17.6881C64.2939 14.0735 60.5752 11.9364 56.5784 12.0515C48.6578 12.2797 43.6074 20.9126 47.2426 28.2711C49.1706 32.1768 53.1136 34.5655 57.3555 34.3552C59.6729 34.242 61.7887 33.417 63.7045 31.8802Z" fill="#F56800"/>
</g>
</g>
<defs>
<clipPath id="clip0_2102_1213">
<rect width="110" height="50" fill="white"/>
</clipPath>
</defs>
</svg>
