<svg width="74" height="72" viewBox="0 0 74 72" fill="none" xmlns="http://www.w3.org/2000/svg">
<g clip-path="url(#clip0_2102_1224)">
<mask id="mask0_2102_1224" style="mask-type:luminance" maskUnits="userSpaceOnUse" x="26" y="28" width="45" height="44">
<path d="M26.5576 28.0651H70.9987V71.1731H26.5576V28.0651Z" fill="white"/>
</mask>
<g mask="url(#mask0_2102_1224)">
<path d="M67.8061 32.1056C67.9637 33.1627 68.0832 34.2365 68.1299 35.3259H65.9249C65.3795 36.2059 64.7996 37.0872 64.1987 37.9697H68.1275C67.8197 45.1959 65.0396 51.8121 60.5507 57.0102C58.3592 55.7833 55.871 54.731 53.1759 53.8581C53.592 52.6528 53.9626 51.3996 54.2889 50.1093C53.5021 50.926 52.7154 51.7404 51.8905 52.5416C50.892 53.5113 49.8738 54.4536 48.8495 55.3684C49.1326 55.4342 49.4269 55.4892 49.7015 55.5585C46.7257 62.7057 42.1309 67.5307 36.8872 68.253V64.4934C35.9786 65.077 35.0712 65.6402 34.165 66.1687V68.253C33.3241 68.137 32.5103 67.8799 31.7064 67.5606C30.0455 68.4479 28.3994 69.2132 26.7705 69.9103C29.5752 70.6087 32.4968 71.0212 35.5292 71.0212C45.5991 71.0212 54.6619 66.9173 61.106 60.3632C61.7154 59.7438 62.3199 59.1172 62.8814 58.4559C67.9059 52.52 70.9223 44.9268 70.9223 36.6484C70.9223 33.6948 70.5221 30.8309 69.8007 28.0938C69.2023 29.4187 68.5461 30.7568 67.8061 32.1056ZM45.1177 66.9759C47.9729 64.4061 50.418 60.7279 52.2636 56.2855C54.6262 57.0317 56.8128 57.9166 58.7396 58.9426C54.9944 62.6232 50.3331 65.4178 45.1177 66.9759Z" fill="#F5812C"/>
</g>
<path d="M8.1771 58.4559C8.7373 59.1172 9.34551 59.7414 9.95248 60.3632C11.6749 62.1126 13.5943 63.6755 15.6615 65.0459C16.8484 64.8546 18.0894 64.5807 19.4043 64.1813C16.8102 62.7404 14.4119 61.0006 12.3201 58.9486C14.2481 57.9226 16.4347 57.0365 18.7974 56.2904C19.8513 58.829 21.1219 61.0819 22.5291 63.0573C23.338 62.7321 24.1494 62.396 24.9718 62.0158C23.6052 60.1803 22.3801 58.0207 21.3558 55.5633C25.2624 54.5696 29.5912 53.9741 34.17 53.8737V56.7376C35.0799 56.1218 35.986 55.4736 36.8934 54.8052V53.8737C37.2763 53.8821 37.6445 53.9167 38.0249 53.9323C39.0492 53.1443 40.065 52.3251 41.0746 51.4761C39.703 51.3542 38.3118 51.2645 36.8934 51.2322V37.9698H53.1895C53.1784 38.4301 53.1292 38.8714 53.1107 39.3258C54.1991 37.9961 55.2468 36.664 56.2133 35.3259H55.9117C55.7811 29.5514 54.8085 24.1465 53.1809 19.4375C55.8759 18.5646 58.3642 17.5123 60.5557 16.2854C61.8115 17.7371 62.9134 19.3107 63.8861 20.9657C64.2998 19.6755 64.5854 18.457 64.7787 17.3006C64.1828 16.4552 63.5561 15.6301 62.8888 14.8397C62.3286 14.1784 61.7216 13.5542 61.1147 12.9324C54.6645 6.37595 45.6017 2.27441 35.5317 2.27441C25.4618 2.27441 16.399 6.37834 9.95248 12.9324C9.34551 13.5519 8.7373 14.1784 8.1771 14.8397C3.15753 20.7732 0.141113 28.3688 0.141113 36.6484C0.141113 44.9268 3.15753 52.5201 8.1771 58.4559ZM58.7397 14.3506C56.8129 15.3754 54.6263 16.2615 52.2636 17.0077C50.4181 12.5653 47.9729 8.8871 45.1178 6.31736C50.3331 7.87786 54.9944 10.67 58.7397 14.3506ZM36.8934 5.04265C42.1358 5.76252 46.7319 10.5899 49.7077 17.7371C45.7974 18.7308 41.4722 19.3263 36.8934 19.4267V5.04265ZM36.8934 22.0658C41.7936 21.9594 46.4327 21.2993 50.6298 20.1825C52.1467 24.6356 53.0639 29.7942 53.1895 35.3259H36.8934V22.0658ZM34.17 51.2274C29.2699 51.3326 24.6308 51.9939 20.4336 53.1096C18.9168 48.6577 17.9996 43.4991 17.874 37.9674H34.17V51.2274ZM34.17 35.3259H17.874C18.002 29.7942 18.9193 24.6356 20.4336 20.1825C24.6308 21.2993 29.2699 21.9594 34.17 22.0658V35.3259ZM34.17 5.04265V19.4243C29.5912 19.3239 25.2624 18.7284 21.3558 17.7347C24.3316 10.5875 28.9276 5.76252 34.17 5.04265ZM25.9432 6.31736C23.0905 8.8871 20.6429 12.5653 18.7974 17.0077C16.4347 16.2615 14.2506 15.3754 12.3238 14.3506C16.069 10.67 20.7279 7.87786 25.9432 6.31736ZM10.5102 16.283C12.7017 17.5099 15.19 18.5622 17.8851 19.4351C16.2574 24.1417 15.2848 29.5479 15.1543 35.3235H2.93099C3.24126 28.0974 6.01759 21.4811 10.5102 16.283ZM15.1543 37.9698C15.2848 43.7442 16.2574 49.1491 17.8851 53.8581C15.19 54.7311 12.7017 55.7857 10.5102 57.0102C6.02129 51.8122 3.24126 45.1959 2.93346 37.9698H15.1543Z" fill="#F5812C"/>
<mask id="mask1_2102_1224" style="mask-type:luminance" maskUnits="userSpaceOnUse" x="0" y="0" width="74" height="71">
<path d="M0.397461 0H73.1486V70.9219H0.397461V0Z" fill="white"/>
</mask>
<g mask="url(#mask1_2102_1224)">
<path d="M23.7793 68.284C32.3114 65.0422 41.6143 58.7847 49.9717 50.6689C58.3265 42.5519 64.7706 33.5166 68.1083 25.231C71.2959 17.3197 71.286 10.8947 68.1933 6.87811L70.9992 6.15585L73.022 5.63449L69.4146 4.16248L66.3958 2.93322L59.5331 0.13269L62.4153 6.7956L63.8041 10.0063L64.8174 12.3488L65.2015 13.2337L66.3798 8.91692C68.4863 12.2221 68.2278 17.6844 65.5733 24.266C62.3698 32.2216 56.1461 40.9364 48.0473 48.7999C39.9485 56.6634 30.9744 62.7105 22.7857 65.8231C19.0072 67.258 15.5931 67.9647 12.7182 67.9623C9.71905 67.9564 7.30099 67.1851 5.69428 65.627C3.69359 63.6838 2.94503 60.521 3.43505 56.5558C2.67786 55.4054 1.99455 54.212 1.3691 52.9804C-0.221596 59.3073 0.560211 64.3822 3.76993 67.4936C5.92082 69.5826 8.96187 70.6301 12.6973 70.6301C12.6998 70.6301 12.7022 70.6301 12.7047 70.6301C15.928 70.6301 19.6609 69.8493 23.7793 68.284Z" fill="#F5812C"/>
</g>
</g>
<defs>
<clipPath id="clip0_2102_1224">
<rect width="74" height="72" fill="white"/>
</clipPath>
</defs>
</svg>
