<svg width="74" height="72" viewBox="0 0 74 72" fill="none" xmlns="http://www.w3.org/2000/svg">
<g clip-path="url(#clip0_2102_1236)">
<mask id="mask0_2102_1236" style="mask-type:luminance" maskUnits="userSpaceOnUse" x="0" y="0" width="74" height="72">
<path d="M0.539551 0.525024H73.5529V71.565H0.539551V0.525024Z" fill="white"/>
</mask>
<g mask="url(#mask0_2102_1236)">
<path d="M68.2281 23.2722H59.6294C57.7756 23.1985 56.1414 22.6522 55.1509 22.2347L56.1928 18.206C56.3881 17.4547 56.6155 16.6885 56.8429 15.9147C57.5276 13.6085 58.2316 11.2235 58.265 8.80721C58.2779 7.78471 58.1379 4.31971 55.7406 2.71221C53.3677 1.11846 50.1006 1.70096 48.4485 4.02971L44.1434 10.3747C42.5388 9.85096 41.0318 9.25971 39.634 8.52971C32.8674 5.00596 27.3495 0.873462 27.2955 0.832212C26.7752 0.440962 26.0622 0.417212 25.5239 0.769712C25.4725 0.802212 20.2912 4.16096 14.3635 7.64596C10.5145 9.90721 6.31217 11.3235 1.87602 11.856C1.11418 11.9472 0.54248 12.5772 0.54248 13.3222V37.1697C0.54248 51.7235 9.5972 65.0147 23.0714 70.2472L25.804 71.3085C25.9851 71.3797 26.1765 71.4147 26.368 71.4147C26.5594 71.4147 26.7508 71.3797 26.9307 71.3085L29.662 70.2472C37.0517 67.3797 43.2685 62.0147 47.2974 55.1197H63.2819C66.3717 55.1197 67.5844 52.4122 68.3861 50.621C69.6528 47.7822 73.4607 30.5097 73.4607 28.3597C73.4607 25.5547 71.1148 23.2697 68.2281 23.2697V23.2722ZM28.5353 67.5035L26.3654 68.346L24.1968 67.5035C11.8635 62.7172 3.57828 50.526 3.57828 37.1735V14.6047C7.95019 13.9135 12.1037 12.426 15.9322 10.176C20.4595 7.51596 24.5578 4.92596 26.3114 3.80596C28.1614 5.13346 32.7338 8.28471 38.2003 11.1347C39.5274 11.826 40.9097 12.4235 42.3897 12.9435L40.5063 15.7372C37.2855 18.956 30.1296 22.7547 28.9002 23.3972C27.5743 22.0872 25.7179 21.2597 23.6521 21.2597H20.2912C19.4536 21.2597 18.7727 21.921 18.7727 22.7372V52.2522C18.7727 53.0685 19.4536 53.731 20.2912 53.731H23.6521C26.0802 53.731 28.2193 52.5922 29.5412 50.8597C29.7198 51.0022 29.8997 51.141 30.0872 51.2772C30.2427 51.386 30.4097 51.4785 30.5703 51.5822C31.1394 51.9485 31.7317 52.2797 32.3599 52.5747C32.491 52.6372 32.622 52.696 32.7556 52.7547C35.9276 54.1535 39.6186 54.7535 42.621 54.9847C42.7328 54.9935 42.8304 54.9985 42.9435 55.0085C43.2377 55.0285 43.5473 55.0585 43.8235 55.0697C40.1389 60.711 34.788 65.0797 28.5443 67.5035H28.5353ZM23.6521 50.7772H21.8111V24.2185H23.6521C25.989 24.2185 27.8878 25.9747 27.8878 28.136V46.8635C27.8878 49.021 25.989 50.7772 23.6521 50.7772ZM65.5995 49.441C64.7401 51.3635 64.2262 52.1635 63.2819 52.1635H47.1355C47.1201 52.1635 46.8285 52.1735 46.3698 52.1735C41.5637 52.1585 35.8723 51.3772 32.3818 49.231C32.3239 49.196 32.2636 49.161 32.2057 49.1222C31.7343 48.821 31.3026 48.4985 30.9262 48.141V25.691C33.1834 24.4847 39.5184 20.9547 42.8612 17.5822L50.9678 5.68346C51.6539 4.71346 53.0208 4.47096 54.0178 5.13846C54.8747 5.71221 55.2447 7.42096 55.2267 8.76346C55.1997 10.7797 54.5522 12.9697 53.924 15.0897C53.6837 15.8972 53.4499 16.6947 53.2456 17.4785L51.9057 22.666C51.7425 23.2997 52.0252 23.961 52.602 24.296C52.7266 24.366 55.6918 26.0697 59.569 26.2235H68.2306C69.4408 26.2235 70.4249 27.181 70.4249 28.3572C70.4249 30.0922 66.6761 47.041 65.6034 49.4385L65.5995 49.441Z" fill="#F5812C"/>
</g>
</g>
<defs>
<clipPath id="clip0_2102_1236">
<rect width="74" height="72" fill="white"/>
</clipPath>
</defs>
</svg>
