<svg width="112" height="42" viewBox="0 0 112 42" fill="none" xmlns="http://www.w3.org/2000/svg">
<g clip-path="url(#clip0_746_61961)">
<path d="M19.1965 36.047C19.1965 38.4681 19.5389 40.247 20.2481 41.3587C19.7101 41.5811 19.1965 41.7293 18.7075 41.8281C18.2428 41.927 17.7293 41.9764 17.2158 41.9764C16.1153 41.9764 15.2839 41.754 14.7214 41.334C14.159 40.914 13.7922 40.2964 13.6455 39.4811C12.9852 40.1975 12.0804 40.7905 11.0044 41.2846C9.90397 41.7787 8.55899 42.0258 6.96947 42.0258C6.13803 42.0258 5.33104 41.9023 4.4996 41.6799C3.66816 41.4575 2.93454 41.0623 2.24982 40.5434C1.58956 40.0246 1.02711 39.3328 0.611394 38.4434C0.195673 37.5787 -0.0244141 36.4917 -0.0244141 35.2317C-0.0244141 33.6752 0.342398 32.3905 1.10048 31.4023C1.85856 30.414 2.78781 29.6481 3.9127 29.0799C5.03759 28.5117 6.2603 28.1164 7.58083 27.9187C8.90135 27.6964 10.0996 27.5728 11.2 27.4987C11.5669 27.474 11.9337 27.4493 12.276 27.4493C12.6184 27.4493 12.9607 27.4493 13.2542 27.4493V26.6093C13.2542 25.4234 12.9363 24.5834 12.3249 24.0893C11.6891 23.5952 10.6865 23.3481 9.29262 23.3481C7.97209 23.3481 6.82275 23.5705 5.79567 23.9905C4.7686 24.4105 3.76598 24.9046 2.81227 25.4728C2.39655 24.954 2.05419 24.3611 1.78519 23.7434C1.5162 23.1011 1.39393 22.6317 1.39393 22.3352C1.39393 21.9152 1.63847 21.4952 2.1031 21.0999C2.56773 20.7046 3.22799 20.334 4.03497 20.0128C4.86642 19.6917 5.79567 19.4199 6.87166 19.2223C7.94764 19.0246 9.07253 18.9258 10.2463 18.9258C11.8848 18.9258 13.2786 19.0987 14.428 19.4446C15.5773 19.7905 16.5066 20.3093 17.2158 21.0258C17.9249 21.7423 18.4385 22.6317 18.7564 23.694C19.0498 24.7564 19.221 25.9917 19.221 27.4246V36.047H19.1965ZM13.352 30.6858C13.1319 30.6858 12.9363 30.6858 12.7162 30.6858C12.4961 30.6858 12.3005 30.7105 12.0804 30.7352C11.3223 30.8093 10.5642 30.8834 9.80615 31.007C9.04807 31.1305 8.38781 31.3528 7.82537 31.6493C7.23847 31.9458 6.77384 32.3658 6.40703 32.8599C6.04022 33.354 5.86904 33.9964 5.86904 34.7623C5.86904 35.627 6.11358 36.3681 6.60266 36.9611C7.09174 37.554 7.92318 37.8505 9.07253 37.8505C9.65943 37.8505 10.1974 37.7764 10.711 37.6281C11.2245 37.4799 11.6891 37.2823 12.0804 37.0352C12.4717 36.7881 12.7896 36.5164 13.0096 36.2199C13.2297 35.9234 13.352 35.6517 13.352 35.4046V30.6858Z" fill="#2B758E"/>
<path d="M42.7705 23.0269C42.7705 22.261 42.8928 21.6433 43.1373 21.1492C43.3819 20.6798 43.6998 20.3092 44.091 20.0375C44.4823 19.7657 44.9225 19.5928 45.4116 19.4939C45.9006 19.3951 46.3897 19.3457 46.8788 19.3457C47.3679 19.3457 47.8325 19.3704 48.2971 19.4198C48.7618 19.4692 48.9819 19.4939 48.9819 19.5433V38.0233C48.9819 38.7892 48.884 39.4316 48.6884 39.9257C48.4928 40.4198 48.2238 40.8151 47.857 41.1116C47.5146 41.4081 47.0989 41.6057 46.6098 41.7045C46.1207 41.8034 45.5827 41.8775 44.9714 41.8775C44.4823 41.8775 44.0177 41.8528 43.602 41.8281C43.1862 41.8034 42.8928 41.7539 42.7705 41.6798V23.0269Z" fill="#2B758E"/>
<path d="M91.1653 36.047C91.1653 38.4681 91.5077 40.247 92.2168 41.3587C91.6788 41.5811 91.1653 41.7293 90.6762 41.8281C90.2116 41.927 89.698 41.9764 89.1845 41.9764C88.0841 41.9764 87.2526 41.754 86.6902 41.334C86.1277 40.914 85.7609 40.2964 85.6142 39.4811C84.9539 40.1975 84.0491 40.7905 82.9732 41.2846C81.8727 41.7787 80.5277 42.0258 78.9382 42.0258C78.1068 42.0258 77.2998 41.9023 76.4684 41.6799C75.6369 41.4575 74.9033 41.0623 74.2186 40.5434C73.5583 40.0246 72.9959 39.3328 72.5801 38.4434C72.1644 37.5787 71.9443 36.4917 71.9443 35.2317C71.9443 33.6752 72.3111 32.3905 73.0692 31.4023C73.8273 30.414 74.7566 29.6481 75.8814 29.0799C77.0063 28.5117 78.229 28.1164 79.5496 27.9187C80.8701 27.6964 82.0684 27.5728 83.1688 27.4987C83.5356 27.474 83.9024 27.4493 84.2448 27.4493C84.5871 27.4493 84.9295 27.4493 85.2229 27.4493V26.6093C85.2229 25.4234 84.905 24.5834 84.2937 24.0893C83.6579 23.5952 82.6552 23.3481 81.2614 23.3481C79.9408 23.3481 78.7915 23.5705 77.7644 23.9905C76.7373 24.4105 75.7347 24.9046 74.781 25.4728C74.3653 24.954 74.0229 24.3611 73.7539 23.7434C73.4849 23.1011 73.3627 22.6317 73.3627 22.3352C73.3627 21.9152 73.6072 21.4952 74.0718 21.0999C74.5365 20.7046 75.1967 20.334 76.0037 20.0128C76.8352 19.6917 77.7644 19.4199 78.8404 19.2223C79.9164 19.0246 81.0413 18.9258 82.2151 18.9258C83.8535 18.9258 85.2474 19.0987 86.3967 19.4446C87.5461 19.7905 88.4753 20.3093 89.1845 21.0258C89.8937 21.7423 90.4072 22.6317 90.7251 23.694C91.0186 24.7564 91.1897 25.9917 91.1897 27.4246V36.047H91.1653ZM85.2963 30.6858C85.0762 30.6858 84.8806 30.6858 84.6605 30.6858C84.4404 30.6858 84.2448 30.7105 84.0247 30.7352C83.2666 30.8093 82.5085 30.8834 81.7504 31.007C80.9924 31.1305 80.3321 31.3528 79.7697 31.6493C79.1828 31.9458 78.7181 32.3658 78.3513 32.8599C77.9845 33.354 77.8133 33.9964 77.8133 34.7623C77.8133 35.627 78.0579 36.3681 78.547 36.9611C79.036 37.554 79.8675 37.8505 81.0168 37.8505C81.6037 37.8505 82.1417 37.7764 82.6552 37.6281C83.1688 37.4799 83.6334 37.2823 84.0247 37.0352C84.4159 36.7881 84.7339 36.5164 84.9539 36.2199C85.174 35.9234 85.2963 35.6517 85.2963 35.4046V30.6858Z" fill="#2B758E"/>
<path d="M41.7187 19.9881C41.3519 19.8398 40.8873 19.6916 40.3248 19.5681C39.7624 19.4445 39.1755 19.3704 38.5641 19.3704C37.9039 19.3704 37.3659 19.4692 36.9013 19.6669C36.4611 19.8645 36.0698 20.1363 35.7519 20.5316C35.434 20.9022 35.165 21.3716 34.9694 21.9151C34.7493 22.4586 34.5537 23.0516 34.358 23.7186L30.8122 33.0081L27.462 23.8422C27.2663 23.1751 27.0707 22.5575 26.8751 22.0139C26.6794 21.4457 26.4104 20.9763 26.0925 20.6057C25.7746 20.2351 25.3589 19.9139 24.8698 19.6916C24.3807 19.4692 23.7694 19.3457 23.0358 19.3457C21.862 19.3457 20.7371 19.5434 19.6855 19.9634L27.3152 39.0363C27.7799 40.5434 29.1493 41.6057 30.7633 41.6057C32.3528 41.6057 33.6733 40.5681 34.1624 39.1351L41.7187 19.9881Z" fill="#2B758E"/>
<path d="M72.3106 19.9881C71.9438 19.8398 71.4791 19.6916 70.9167 19.5681C70.3542 19.4445 69.7673 19.3704 69.156 19.3704C68.4957 19.3704 67.9577 19.4692 67.4931 19.6669C67.0529 19.8645 66.6617 20.1363 66.3438 20.5316C66.0259 20.9022 65.7569 21.3716 65.5612 21.9151C65.3411 22.4586 65.1455 23.0516 64.9499 23.7186L61.3796 33.0081L58.0293 23.8422C57.8337 23.1751 57.6381 22.5575 57.4424 22.0139C57.2468 21.4457 56.9778 20.9763 56.6599 20.6057C56.342 20.2351 55.9263 19.9139 55.4372 19.6916C54.9481 19.4692 54.3368 19.3457 53.6031 19.3457C52.4293 19.3457 51.3045 19.5434 50.2529 19.9634L57.8826 39.0363C58.3473 40.5434 59.7167 41.6057 61.3307 41.6057C62.9202 41.6057 64.2407 40.5681 64.7298 39.1351L72.3106 19.9881Z" fill="#2B758E"/>
<path d="M55.022 10.871C54.8997 10.7475 54.753 10.624 54.5818 10.5746C54.4106 10.5004 54.215 10.4757 53.9949 10.4757C53.7748 10.4757 53.5547 10.5251 53.3591 10.5993C53.1634 10.6734 52.9923 10.7969 52.87 10.9451C52.7233 11.0934 52.6255 11.2663 52.5276 11.464C52.4543 11.6616 52.4054 11.884 52.4054 12.1063C52.4054 12.3534 52.4543 12.551 52.5276 12.7487C52.601 12.9463 52.7233 13.1193 52.8455 13.2675C52.9923 13.4157 53.139 13.5146 53.3346 13.6134C53.5303 13.6875 53.7259 13.7369 53.946 13.7369C54.1905 13.7369 54.4106 13.6875 54.6062 13.5887C54.8019 13.4898 54.9486 13.3663 55.0709 13.1934L56.0735 13.8851C55.8534 14.1816 55.56 14.404 55.1931 14.5522C54.8508 14.7004 54.484 14.7746 54.0927 14.7746C53.677 14.7746 53.2857 14.7004 52.9189 14.5769C52.5521 14.4534 52.2586 14.2804 51.9896 14.0334C51.7207 13.811 51.525 13.5146 51.3783 13.1934C51.2316 12.8722 51.1582 12.5016 51.1582 12.0816C51.1582 11.6863 51.2316 11.3157 51.3783 10.9698C51.525 10.6487 51.7207 10.3522 51.9896 10.1298C52.2586 9.9075 52.5521 9.70985 52.9189 9.58632C53.2857 9.46279 53.677 9.38867 54.0927 9.38867C54.2394 9.38867 54.4106 9.41338 54.5818 9.43808C54.753 9.46279 54.8997 9.5122 55.0709 9.56161C55.242 9.61103 55.3888 9.68514 55.5355 9.78397C55.6822 9.88279 55.8289 10.0063 55.9268 10.1298L55.022 10.871Z" fill="#4799AF"/>
<path d="M56.9297 9.5625H58.1279V13.5896H60.3533V14.6272H56.9297V9.5625Z" fill="#4799AF"/>
<path d="M61.9671 8.1543H63.5321L62.2116 9.19194H61.209L61.9671 8.1543ZM61.3557 9.56253H62.554V14.6272H61.3557V9.56253Z" fill="#4799AF"/>
<path d="M63.752 9.5625H65.3904L67.7135 13.0707H67.738V9.5625H68.9362V14.6272H67.3712L64.9991 11.0201H64.9747V14.6272H63.7764V9.5625H63.752Z" fill="#4799AF"/>
<path d="M70.0371 9.5625H71.2354V14.6272H70.0371V9.5625Z" fill="#4799AF"/>
<path d="M76.1255 10.871C76.0032 10.7475 75.8565 10.624 75.6853 10.5746C75.5141 10.5251 75.3185 10.4757 75.0984 10.4757C74.8783 10.4757 74.6582 10.5251 74.4626 10.5993C74.267 10.6734 74.0958 10.7969 73.9735 10.9451C73.8268 11.0934 73.729 11.2663 73.6312 11.464C73.5578 11.6616 73.5089 11.884 73.5089 12.1063C73.5089 12.3534 73.5578 12.551 73.6312 12.7487C73.7045 12.9463 73.8268 13.1193 73.9491 13.2675C74.0713 13.4157 74.2425 13.5146 74.4381 13.6134C74.6338 13.6875 74.8294 13.7369 75.0495 13.7369C75.294 13.7369 75.5141 13.6875 75.7098 13.5887C75.9054 13.4898 76.0521 13.3663 76.1744 13.1934L77.177 13.8851C76.9569 14.1816 76.6635 14.404 76.2967 14.5522C75.9543 14.7004 75.5875 14.7746 75.1962 14.7746C74.7805 14.7746 74.3892 14.7004 74.0224 14.5769C73.6556 14.4534 73.3622 14.2804 73.0932 14.0334C72.8242 13.811 72.6285 13.5146 72.4818 13.1934C72.3351 12.8722 72.2617 12.5016 72.2617 12.0816C72.2617 11.6863 72.3351 11.3157 72.4818 10.9698C72.6285 10.6487 72.8242 10.3522 73.0932 10.1298C73.3622 9.9075 73.6556 9.70985 74.0224 9.58632C74.3892 9.46279 74.7805 9.38867 75.1962 9.38867C75.3429 9.38867 75.5141 9.41338 75.6853 9.43808C75.8565 9.46279 76.0277 9.5122 76.1744 9.56161C76.3456 9.61103 76.4923 9.68514 76.639 9.78397C76.7857 9.88279 76.9325 10.0063 77.0303 10.1298L76.1255 10.871Z" fill="#4799AF"/>
<path d="M79.7939 9.5625H80.7965L83.1686 14.6272H81.8236L81.359 13.5649H79.2314L78.7668 14.6272H77.4463L79.7939 9.5625ZM80.2585 11.0201L79.5983 12.6013H80.9188L80.2585 11.0201Z" fill="#4799AF"/>
<path d="M92.6322 14.6253H97.4742V8.15234H89.4043V11.3641C89.4288 13.1676 90.8471 14.6253 92.6322 14.6253Z" fill="#2B758E"/>
<path d="M103.882 19.5168V14.625H97.4746V22.7779H100.654C102.439 22.7532 103.882 21.3203 103.882 19.5168Z" fill="#2B758E"/>
<path d="M108.723 8.15234H103.881V14.6253H111.951V11.4135C111.951 9.60999 110.508 8.15234 108.723 8.15234Z" fill="#4799AF"/>
<path d="M97.4746 3.26118V8.15294H103.882V0H100.703C98.9174 0 97.4746 1.45765 97.4746 3.26118Z" fill="#4799AF"/>
</g>
<defs>
<clipPath id="clip0_746_61961">
<rect width="112" height="42" fill="white"/>
</clipPath>
</defs>
</svg>
