<?xml version="1.0" encoding="UTF-8" standalone="no"?><!DOCTYPE svg PUBLIC "-//W3C//DTD SVG 1.1//EN" "http://www.w3.org/Graphics/SVG/1.1/DTD/svg11.dtd"><svg width="100%" height="100%" viewBox="0 0 6213 5234" version="1.1" xmlns="http://www.w3.org/2000/svg" xmlns:xlink="http://www.w3.org/1999/xlink" xml:space="preserve" xmlns:serif="http://www.serif.com/" style="fill-rule:evenodd;clip-rule:evenodd;stroke-linejoin:round;stroke-miterlimit:2;"><path d="M1322.654,2485.642c152.975,-111.333 381.454,-156.992 655.383,-144.821c31.621,55.079 48.854,114.412 48.854,176.262c0,289.163 -376.433,523.583 -840.788,523.583c-21.888,0 -43.579,-0.529 -65.046,-1.55c-31.862,-259.221 46.296,-440.45 201.596,-553.475Zm-136.55,-492.142c280.983,0 529.763,85.842 682.438,217.7c-265.867,24.596 -404.492,51.917 -507.754,65.625c-58.633,7.787 -105.812,11.179 -158.529,7.267c-52.746,-3.921 -111.179,-15.167 -192.283,-36.792l-1.642,-0.438l-1.387,0.967c-23.388,16.242 -39.125,34.225 -50.096,56.987c-10.925,22.663 -17.038,49.879 -21.513,84.4l-0.383,2.987l2.854,0.95l91.704,30.567c-84.921,188.308 -104.908,347.275 -96.675,592.763c-340.583,-66.917 -587.521,-265.196 -587.521,-499.4c0,-92.15 38.23,-178.733 105.346,-253.95l418.604,107.167l4.333,1.108l0.225,-4.471c1.25,-25.029 7.517,-51.679 17.554,-75.517c10.046,-23.862 23.767,-44.654 39.754,-58.179l5.275,-4.471l-6.658,-1.846l-322.625,-89.508c150.771,-89.188 354.612,-143.917 578.979,-143.917Z" style="fill:#2876b6;fill-rule:nonzero;"/><path d="M2225.992,2326l187.637,-392.658l108.571,0l78.008,392.658l-85.912,0l-14.758,-80.112l-143.358,0l-37.421,80.112l-92.767,0Zm162.862,-151.267l97.508,0l-33.733,-184.471l21.608,2.637l-85.383,181.833Zm544.533,157.592c-27.054,0 -52.004,-4.567 -74.842,-13.704c-22.842,-9.488 -42.692,-22.663 -59.558,-39.529c-16.517,-17.217 -29.342,-37.421 -38.475,-60.613c-9.137,-23.187 -13.704,-48.662 -13.704,-76.421c0,-29.517 5.096,-57.275 15.283,-83.279c10.542,-26 25.3,-48.838 44.275,-68.517c18.975,-19.675 41.287,-35.138 66.938,-46.379c25.65,-11.246 53.758,-16.867 84.329,-16.867c28.812,0 54.287,4.917 76.421,14.758c22.492,9.487 41.112,22.312 55.871,38.475c14.758,15.813 24.946,33.379 30.571,52.704l-74.317,32.679c-5.621,-18.975 -16.162,-34.433 -31.625,-46.383c-15.458,-12.296 -35.313,-18.446 -59.558,-18.446c-18.271,0 -35.137,3.513 -50.596,10.542c-15.108,7.029 -28.463,17.042 -40.058,30.042c-11.242,12.65 -20.029,27.583 -26.354,44.8c-6.321,17.217 -9.483,36.017 -9.483,56.396c0,23.542 4.217,44.096 12.646,61.667c8.788,17.217 20.908,30.571 36.371,40.058c15.808,9.483 34.258,14.229 55.342,14.229c25.296,0 46.908,-6.325 64.825,-18.975c17.921,-13 30.921,-28.987 39.004,-47.962l70.625,36.896c-8.079,19.325 -20.554,36.892 -37.421,52.704c-16.512,15.462 -36.367,27.933 -59.558,37.421c-23.192,9.137 -48.842,13.704 -76.95,13.704Zm480.196,0c-31.621,0 -59.204,-6.675 -82.746,-20.029c-23.192,-13.35 -40.583,-31.446 -52.179,-54.287c-11.596,-23.188 -15.463,-49.192 -11.596,-78.004l34.258,-246.663l81.696,0l-34.258,245.608c-2.108,15.462 -0.704,29.342 4.217,41.637c5.271,11.95 13.525,21.258 24.771,27.938c11.242,6.675 24.596,10.012 40.054,10.012c15.112,0 28.992,-3.337 41.637,-10.012c12.65,-6.679 23.192,-16.342 31.625,-28.992c8.433,-12.65 13.879,-27.583 16.342,-44.8l33.729,-241.392l81.696,0l-35.312,250.879c-3.867,28.813 -13.879,54.463 -30.046,76.95c-16.163,22.137 -36.717,39.529 -61.662,52.179c-24.596,12.65 -52.004,18.975 -82.225,18.975Zm285.196,-6.325l187.633,-392.658l108.575,0l78.004,392.658l-85.913,0l-14.754,-80.112l-143.362,0l-37.421,80.112l-92.763,0Zm162.863,-151.267l97.504,0l-33.729,-184.471l21.608,2.637l-85.383,181.833Zm357.567,151.267l54.833,-392.658l144.917,0c25.292,0 47.458,4.567 66.417,13.704c18.958,8.783 33.75,21.958 44.292,39.529c10.875,17.567 16.333,39.354 16.333,65.354c0,18.625 -3.333,35.842 -10.042,51.654c-6.292,15.808 -15.625,29.512 -27.917,41.108c-11.958,11.596 -26.542,20.733 -43.75,27.408l65.875,153.9l-86.958,0l-73.25,-174.983l49,32.679l-98.042,0l-20,142.304l-81.708,0Zm111.75,-213.458l70.083,0c12.292,0 23,-2.638 32.167,-7.908c9.458,-5.267 16.875,-12.471 22.125,-21.608c5.625,-9.133 8.417,-19.5 8.417,-31.096c0,-14.404 -4.708,-25.825 -14.208,-34.258c-9.125,-8.783 -21.625,-13.175 -37.417,-13.175l-66.417,0l-14.75,108.046Zm350.875,213.458l54.792,-392.658l81.708,0l-54.792,392.658l-81.708,0Zm419.083,6.325c-31.625,0 -59.208,-6.675 -82.75,-20.029c-23.208,-13.35 -40.583,-31.446 -52.208,-54.287c-11.583,-23.188 -15.458,-49.192 -11.583,-78.004l34.25,-246.663l81.708,0l-34.25,245.608c-2.125,15.462 -0.708,29.342 4.208,41.637c5.25,11.95 13.542,21.258 24.75,27.938c11.25,6.675 24.625,10.012 40.083,10.012c15.083,0 29,-3.337 41.625,-10.012c12.667,-6.679 23.208,-16.342 31.625,-28.992c8.417,-12.65 13.875,-27.583 16.333,-44.8l33.75,-241.392l81.667,0l-35.292,250.879c-3.875,28.813 -13.875,54.463 -30.042,76.95c-16.167,22.137 -36.708,39.529 -61.667,52.179c-24.583,12.65 -52,18.975 -82.208,18.975Zm483.625,0c-27.417,0 -52.333,-4.567 -74.833,-13.704c-22.125,-9.133 -40.75,-22.133 -55.875,-39c-15.125,-16.867 -25.458,-36.546 -31.083,-59.033l69.042,-26.879c7.042,20.733 18.792,37.246 35.292,49.546c16.542,11.946 35.167,17.917 55.875,17.917c11.958,0 22.333,-1.929 31.125,-5.796c9.125,-4.217 16.125,-9.838 21.083,-16.867c5.25,-7.025 7.875,-14.933 7.875,-23.717c0,-8.433 -2.625,-15.637 -7.875,-21.608c-5.292,-5.975 -13.917,-10.896 -25.833,-14.758l-69.583,-23.721c-28.833,-9.838 -50.25,-23.363 -64.292,-40.583c-13.708,-17.567 -20.583,-39 -20.583,-64.3c0,-23.192 6.167,-43.921 18.458,-62.192c12.667,-18.625 29.542,-33.383 50.583,-44.275c21.458,-10.892 45.542,-16.338 72.208,-16.338c24.958,0 47.458,4.217 67.5,12.65c20.375,8.079 37.417,19.675 51.125,34.783c13.667,15.113 23.167,33.029 28.458,53.763l-68.542,26.879c-5.625,-17.921 -15.625,-31.8 -30.042,-41.638c-14.042,-10.192 -30.917,-15.283 -50.583,-15.283c-11.583,0 -21.792,1.929 -30.583,5.796c-8.417,3.513 -15.083,8.608 -20,15.283c-4.583,6.679 -6.875,14.583 -6.875,23.721c0,9.487 2.833,17.392 8.417,23.717c5.625,6.325 14.417,11.596 26.375,15.812l68,23.717c28.792,9.838 50.25,23.192 64.292,40.058c14.417,16.863 21.625,37.771 21.625,62.717c0,23.192 -6.5,44.1 -19.5,62.721c-12.667,18.625 -29.708,33.383 -51.125,44.275c-21.083,10.892 -44.458,16.338 -70.125,16.338Z" style="fill:#005b96;fill-rule:nonzero;"/><path d="M2905.617,3029.779c-28.462,0 -54.817,-4.746 -79.058,-14.233c-23.896,-9.483 -44.8,-22.838 -62.721,-40.054c-17.571,-17.217 -31.275,-37.246 -41.113,-60.083c-9.838,-23.192 -14.758,-48.492 -14.758,-75.9c0,-30.567 5.625,-58.854 16.867,-84.854c11.246,-26.004 26.879,-48.667 46.908,-67.992c20.029,-19.679 43.221,-34.962 69.575,-45.854c26.704,-10.892 55.517,-16.342 86.437,-16.342c28.813,0 55.163,4.746 79.058,14.233c24.246,9.488 45.15,22.838 62.721,40.054c17.921,16.867 31.621,36.896 41.108,60.088c9.842,22.838 14.758,47.788 14.758,74.842c0,30.571 -5.621,59.029 -16.867,85.383c-11.242,26.004 -27.054,48.842 -47.433,68.517c-20.029,19.679 -43.396,34.963 -70.1,45.858c-26.354,10.892 -54.813,16.338 -85.383,16.338Zm0,-73.788c18.975,0 36.717,-3.517 53.233,-10.542c16.867,-7.029 31.625,-16.867 44.271,-29.517c12.65,-12.65 22.487,-27.583 29.517,-44.8c7.379,-17.571 11.067,-36.542 11.067,-56.921c0,-23.192 -5.092,-43.396 -15.283,-60.612c-9.838,-17.571 -23.542,-31.1 -41.108,-40.583c-17.221,-9.842 -37.071,-14.758 -59.558,-14.758c-18.975,0 -36.896,3.512 -53.762,10.542c-16.513,7.025 -31.096,16.863 -43.746,29.513c-12.65,12.3 -22.662,27.058 -30.042,44.275c-7.029,17.217 -10.542,36.192 -10.542,56.921c0,22.842 4.921,43.046 14.758,60.613c10.188,17.571 23.892,31.275 41.108,41.113c17.571,9.837 37.6,14.758 60.087,14.758Z" style="fill:#f75600;fill-rule:nonzero;"/><path d="M3241.979,3126.904l54.812,-393.188l74.317,0l-6.85,54.817l-15.287,-16.867c10.542,-14.408 24.071,-25.3 40.583,-32.679c16.867,-7.729 35.492,-11.596 55.871,-11.596c26.704,0 50.421,6.325 71.154,18.975c20.729,12.3 37.067,29.162 49.017,50.596c12.296,21.083 18.446,44.979 18.446,71.683c0,21.783 -4.042,42.338 -12.125,61.667c-8.079,19.325 -19.325,36.367 -33.729,51.125c-14.054,14.404 -30.571,25.825 -49.546,34.258c-18.621,8.079 -38.825,12.121 -60.613,12.121c-21.433,0 -40.933,-3.688 -58.5,-11.067c-17.221,-7.733 -30.746,-18.625 -40.588,-32.679l17.396,-15.283l-21.608,158.117l-82.75,0Zm177.621,-170.242c16.163,0 30.392,-3.863 42.692,-11.596c12.296,-7.729 21.958,-18.271 28.988,-31.621c7.025,-13.354 10.542,-28.287 10.542,-44.8c0,-13.704 -2.813,-25.825 -8.433,-36.367c-5.621,-10.542 -13.529,-18.8 -23.717,-24.775c-9.842,-5.971 -21.613,-8.958 -35.317,-8.958c-15.808,0 -29.867,4.042 -42.163,12.121c-11.946,7.733 -21.258,18.275 -27.933,31.625c-6.679,13.354 -10.017,28.287 -10.017,44.8c0,13.704 2.637,25.825 7.908,36.367c5.621,10.542 13.35,18.8 23.187,24.771c9.842,5.625 21.258,8.433 34.262,8.433Zm454.383,67.992c-35.492,0 -61.842,-9.663 -79.058,-28.988c-17.221,-19.675 -23.546,-46.383 -18.975,-80.113l15.812,-113.321l-48.492,0l9.488,-68.517l1.054,0c14.758,0 26.879,-4.042 36.367,-12.121c9.837,-8.083 15.812,-19.504 17.921,-34.258l2.633,-18.975l80.117,0l-9.487,65.354l66.408,0l-9.488,68.517l-66.408,0l-15.812,112.267c-1.404,9.837 -1.054,17.921 1.054,24.246c2.108,5.971 6.15,10.362 12.121,13.175c6.325,2.812 14.758,4.217 25.3,4.217l8.958,0c3.162,-0.35 7.029,-0.879 11.596,-1.583l-5.796,66.938c-5.271,1.408 -11.246,2.283 -17.921,2.638c-6.325,0.35 -12.121,0.525 -17.392,0.525Zm208.613,-3.163l40.054,-287.775l79.6,0l-40.067,287.775l-79.587,0Zm43.746,-313.6l11.067,-79.058l79.592,0l-11.083,79.058l-79.575,0Zm374.075,319.925c-27.75,0 -52.708,-6.15 -74.833,-18.446c-21.792,-12.3 -39,-29.167 -51.667,-50.6c-12.292,-21.433 -18.458,-45.679 -18.458,-72.733c0,-22.138 4.25,-42.867 12.667,-62.192c8.417,-19.325 20.042,-36.192 34.792,-50.6c14.75,-14.404 31.792,-25.65 51.125,-33.729c19.667,-8.083 40.75,-12.125 63.25,-12.125c21.792,0 41.625,3.867 59.542,11.596c17.917,7.379 33.042,17.746 45.333,31.096c12.292,13.354 20.75,28.987 25.292,46.908l-70.083,27.408c-3.875,-14.408 -11.25,-25.65 -22.125,-33.733c-10.917,-8.079 -23.917,-12.121 -39,-12.121c-15.833,0 -29.708,4.042 -41.667,12.121c-11.583,8.083 -20.708,18.8 -27.417,32.154c-6.292,13.35 -9.458,27.758 -9.458,43.217c0,14.054 2.625,26.354 7.917,36.896c5.25,10.542 12.625,18.796 22.125,24.771c9.833,5.975 21.083,8.958 33.708,8.958c16.542,0 30.917,-4.392 43.25,-13.175c12.292,-8.783 21.417,-20.379 27.375,-34.787l66.958,32.154c-6.667,16.863 -16.875,31.975 -30.583,45.325c-13.333,13 -29.333,23.192 -47.958,30.571c-18.625,7.379 -38.667,11.067 -60.083,11.067Zm390.708,0c-19.333,0 -36.167,-2.988 -50.583,-8.958c-14.417,-5.975 -25.667,-14.758 -33.75,-26.354c-7.708,-11.946 -11.583,-26.354 -11.583,-43.221c0,-18.971 4.75,-34.958 14.208,-47.962c9.875,-13.35 23.042,-24.067 39.542,-32.15c16.875,-8.079 35.833,-13.704 56.917,-16.867l90.667,-14.229l-5.792,57.975l-73.792,13.704c-10.875,2.108 -20.375,5.975 -28.458,11.596c-7.75,5.271 -11.583,13 -11.583,23.192c0,8.783 3.167,15.283 9.458,19.5c6.333,3.867 14.417,5.8 24.25,5.8c13,0 24.417,-2.988 34.25,-8.962c10.208,-5.971 18.458,-13.879 24.792,-23.717c6.667,-9.838 10.708,-20.554 12.125,-32.15l10,-73.263c1.083,-8.079 -0.333,-14.933 -4.208,-20.554c-3.875,-5.621 -9.292,-10.017 -16.333,-13.179c-7.042,-3.158 -14.75,-4.742 -23.208,-4.742c-15.083,0 -28.625,4.217 -40.583,12.65c-11.917,8.079 -20.875,18.446 -26.875,31.096l-61.125,-33.204c7.375,-16.162 17.75,-29.867 31.083,-41.113c13.375,-11.242 28.833,-19.85 46.375,-25.825c17.583,-6.325 36.208,-9.488 55.875,-9.488c24.25,0 45.667,4.567 64.292,13.704c19,9.137 33.417,21.787 43.25,37.95c10.167,16.162 13.708,34.958 10.542,56.396l-25.833,186.05l-74.333,0l6.333,-46.379l21.083,-1.583c-9.833,12.65 -20.208,23.017 -31.083,31.096c-10.917,8.083 -22.667,13.879 -35.333,17.396c-12.292,3.863 -25.833,5.796 -40.583,5.796Zm338.375,-6.325l55.875,-398.983l79.583,0l-55.875,398.983l-79.583,0Z" style="fill:#757575;fill-rule:nonzero;"/><path d="M4135.133,2476.638l1735.242,17.387l-1740.754,26.083l-1823.629,-26.083l1829.142,-17.387Z" style="fill:#f75600;fill-rule:nonzero;"/></svg>