<?xml version="1.0" encoding="UTF-8" standalone="no"?><!DOCTYPE svg PUBLIC "-//W3C//DTD SVG 1.1//EN" "http://www.w3.org/Graphics/SVG/1.1/DTD/svg11.dtd"><svg width="100%" height="100%" viewBox="0 0 3946 2458" version="1.1" xmlns="http://www.w3.org/2000/svg" xmlns:xlink="http://www.w3.org/1999/xlink" xml:space="preserve" xmlns:serif="http://www.serif.com/" style="fill-rule:evenodd;clip-rule:evenodd;stroke-linejoin:round;stroke-miterlimit:2;"><path d="M2290.433,1150.829c359.65,-261.746 895.9,-369.008 1537.858,-340.912c76.083,130.667 117.542,271.654 117.542,418.671c0,678.533 -883.292,1228.592 -1972.917,1228.592c-53.054,0 -105.617,-1.312 -157.612,-3.871c-74.654,-609.179 109.108,-1036.096 475.129,-1302.479Zm-317.517,-1150.829c662.5,0 1248.708,203.35 1606.5,515.283c-626.746,57.817 -952.825,122.133 -1195.958,154.421c-137.75,18.292 -248.825,26.292 -372.996,17.071c-124.2,-9.225 -261.65,-35.692 -452.112,-86.483l-1.638,-0.433l-1.392,0.967c-54.262,37.683 -90.579,79.254 -115.917,131.821c-25.287,52.467 -39.55,115.704 -50.029,196.542l-0.392,2.988l2.858,0.95l220.35,73.446c-200.867,443.392 -248.096,816.408 -228.617,1394.854c-801.742,-156.067 -1383.575,-622.137 -1383.575,-1172.838c0,-217.912 91.108,-422.571 250.892,-600.021l979.779,250.825l4.333,1.108l0.225,-4.467c2.967,-59.338 17.812,-122.446 41.571,-178.871c23.771,-56.454 56.362,-105.979 94.646,-138.375l5.279,-4.462l-6.662,-1.846l-761.592,-211.283c354.35,-211.342 835.046,-341.196 1364.446,-341.196Z" style="fill:#0c0c0c;fill-rule:nonzero;"/></svg>