<svg width="1000" height="1400" viewBox="0 0 1000 1400" fill="none" xmlns="http://www.w3.org/2000/svg">
<path d="M1000 1028.09C892.418 1029.16 651.325 1033.8 575.98 1053.87C575.769 1053.83 504.602 1040.19 424.184 1024.2C416.869 1035.98 409.691 1049.21 406.111 1060.54C402.253 1072.75 400.826 1088.29 400.448 1102L490.196 1119.61C490.007 1119.87 410.993 1228.2 453.982 1400H0V1022.5L238.971 1070.3L344.92 1091.1C344.22 1076.44 344.871 1059.98 349.263 1047.1C352.973 1036.22 360.685 1023.97 368.714 1013.08C328.323 1004.9 289.102 996.77 258.579 990.055C173.799 971.402 49.9212 950.48 0 942.254V0H1000V1028.09ZM731.618 1091.57C841.542 1073.48 934.625 1069.88 1000 1075.32V1400H527.272C516.708 1364.28 511.871 1324.56 519.608 1283.98C527.719 1241.44 561.275 1119.61 731.618 1091.57Z" fill="url(#paint0_radial_2552_1112)"/>
<defs>
<radialGradient id="paint0_radial_2552_1112" cx="0" cy="0" r="1" gradientTransform="matrix(-1068.63 -2000.41 1428.87 -475.114 1068.63 1937.57)" gradientUnits="userSpaceOnUse">
<stop offset="0.290256" stop-color="#005B96"/>
<stop offset="0.862329" stop-color="#0179CC"/>
</radialGradient>
</defs>
</svg>
