<svg width="25" height="25" viewBox="0 0 25 25" fill="none" xmlns="http://www.w3.org/2000/svg">
<path d="M18.2293 6.771H18.2397M7.29183 2.0835H17.7085C20.585 2.0835 22.9168 4.41535 22.9168 7.29183V17.7085C22.9168 20.585 20.585 22.9168 17.7085 22.9168H7.29183C4.41535 22.9168 2.0835 20.585 2.0835 17.7085V7.29183C2.0835 4.41535 4.41535 2.0835 7.29183 2.0835ZM16.6668 11.8439C16.7954 12.7108 16.6473 13.5962 16.2437 14.3741C15.84 15.1521 15.2014 15.7829 14.4185 16.1769C13.6357 16.5709 12.7485 16.7081 11.8833 16.5688C11.018 16.4296 10.2187 16.0211 9.59895 15.4014C8.97924 14.7817 8.57072 13.9823 8.43148 13.1171C8.29225 12.2518 8.4294 11.3646 8.82342 10.5818C9.21744 9.79897 9.84827 9.16031 10.6262 8.75666C11.4041 8.35302 12.2895 8.20494 13.1564 8.3335C14.0407 8.46463 14.8594 8.87669 15.4915 9.50881C16.1236 10.1409 16.5357 10.9596 16.6668 11.8439Z" stroke="#F6F8FA" stroke-width="2" stroke-linecap="round" stroke-linejoin="round"/>
</svg>
